# MagicaVoxel @ Ephtracy

# group
o Japan - 5

# material
mtllib Environment-16-Japan - 5.mtl
usemtl palette

# normals
vn -1 0 0
vn 1 0 0
vn 0 0 1
vn 0 0 -1
vn 0 -1 0
vn 0 1 0

# texcoords
vt 0.751953 0.5
vt 0.783203 0.5
vt 0.970703 0.5
vt 0.978516 0.5

# verts
v -1.5 -2.2 1.5
v -1.5 -2.2 0.8
v -1.5 -2.2 -0.5
v -1.5 -2.2 -0.6
v -1.5 -2.2 -0.8
v -1.5 -2.2 -1.5
v -1.5 -2.1 0.6
v -1.5 -2.1 0.5
v -1.5 -2 0.3
v -1.5 -2 0.2
v -1.5 -1.9 -0.3
v -1.5 -1.9 -0.4
v -1.5 -1.8 -0.5
v -1.5 -1.8 -0.6
v -1.5 -1.7 0.3
v -1.5 -1.7 0.2
v -1.5 -1.7 0.1
v -1.5 -1.7 0
v -1.5 -1.6 0.3
v -1.5 -1.6 0.2
v -1.5 -1.5 0.6
v -1.5 -1.5 0.5
v -1.5 -1.4 -0.3
v -1.5 -1.4 -0.4
v -1.5 -1.3 0.3
v -1.5 -1.3 0.2
v -1.5 -1.3 0.1
v -1.5 -1.3 0
v -1.5 -1.3 -0.5
v -1.5 -1.3 -0.6
v -1.5 -1.2 0.6
v -1.5 -1.2 0.5
v -1.5 -1.2 -0.1
v -1.5 -1.2 -0.2
v -1.5 -1.1 0.3
v -1.5 -1.1 0.2
v -1.5 -1.1 -1.1
v -1.5 -1.1 -1.2
v -1.5 -1 1.1
v -1.5 -1 0.9
v -1.5 -1 -0.8
v -1.5 -1 -0.9
v -1.5 -1 -1
v -1.5 -1 -1.1
v -1.5 -1 -1.2
v -1.5 -1 -1.4
v -1.5 -0.9 1.5
v -1.5 -0.9 1.3
v -1.5 -0.9 1.2
v -1.5 -0.9 1.1
v -1.5 -0.9 0.9
v -1.5 -0.9 0.8
v -1.5 -0.9 0.6
v -1.5 -0.9 0.5
v -1.5 -0.9 -0.9
v -1.5 -0.9 -1
v -1.5 -0.9 -1.4
v -1.5 -0.9 -1.5
v -1.5 -0.8 1.3
v -1.5 -0.8 1.2
v -1.5 -0.7 1.5
v -1.5 -0.7 0.8
v -1.5 -0.7 0.3
v -1.5 -0.7 0.2
v -1.5 -0.7 -0.1
v -1.5 -0.7 -0.2
v -1.5 -0.7 -0.5
v -1.5 -0.7 -0.6
v -1.5 -0.7 -0.8
v -1.5 -0.7 -1.5
v 1.5 -2.2 1.5
v 1.5 -2.2 0.8
v 1.5 -2.2 -0.8
v 1.5 -2.2 -1.5
v 1.5 -2.1 0.5
v 1.5 -2.1 0.4
v 1.5 -1.9 -0.3
v 1.5 -1.9 -0.4
v 1.5 -1.6 0.2
v 1.5 -1.6 0.1
v 1.5 -1.5 0.5
v 1.5 -1.5 0.4
v 1.5 -1.4 0
v 1.5 -1.4 -0.1
v 1.5 -1.2 0.4
v 1.5 -1.2 0.3
v 1.5 -1.2 0.2
v 1.5 -1.2 0.1
v 1.5 -1.2 -0.5
v 1.5 -1.2 -0.6
v 1.5 -1.1 -0.3
v 1.5 -1.1 -0.4
v 1.5 -1 1
v 1.5 -1 0.8
v 1.5 -1 0.7
v 1.5 -1 -1.2
v 1.5 -1 -1.3
v 1.5 -0.9 1.5
v 1.5 -0.9 1.2
v 1.5 -0.9 1.1
v 1.5 -0.9 1
v 1.5 -0.9 -0.9
v 1.5 -0.9 -1
v 1.5 -0.9 -1.1
v 1.5 -0.9 -1.2
v 1.5 -0.9 -1.3
v 1.5 -0.9 -1.4
v 1.5 -0.8 1.2
v 1.5 -0.8 1.1
v 1.5 -0.8 -0.8
v 1.5 -0.8 -0.9
v 1.5 -0.8 -1
v 1.5 -0.8 -1.1
v 1.5 -0.8 -1.4
v 1.5 -0.8 -1.5
v 1.5 -0.7 1.5
v 1.5 -0.7 0.8
v 1.5 -0.7 0.7
v 1.5 -0.7 0.4
v 1.5 -0.7 0.3
v 1.5 -0.7 0
v 1.5 -0.7 -0.1
v 1.5 -0.7 -0.5
v 1.5 -0.7 -0.6
v 1.5 -0.7 -0.8
v 1.5 -0.7 -1.5
v -1.5 -2.2 1.5
v -1.5 -0.9 1.5
v -1.5 -0.7 1.5
v -1.4 -0.9 1.5
v -1.4 -0.8 1.5
v -1.3 -0.9 1.5
v -1.3 -0.8 1.5
v -1.2 -1 1.5
v -1.2 -0.9 1.5
v -1 -1 1.5
v -1 -0.9 1.5
v -0.9 -1 1.5
v -0.9 -0.9 1.5
v -0.8 -1 1.5
v -0.8 -0.8 1.5
v -0.7 -1 1.5
v -0.7 -0.9 1.5
v -0.6 -0.9 1.5
v -0.6 -0.8 1.5
v -0.5 -1 1.5
v -0.5 -0.9 1.5
v -0.4 -0.9 1.5
v -0.4 -0.8 1.5
v -0.3 -0.9 1.5
v -0.3 -0.8 1.5
v -0.2 -1 1.5
v -0.2 -0.9 1.5
v 0 -1 1.5
v 0 -0.9 1.5
v 0.1 -0.9 1.5
v 0.1 -0.8 1.5
v 0.2 -0.9 1.5
v 0.2 -0.8 1.5
v 0.3 -0.9 1.5
v 0.3 -0.8 1.5
v 0.5 -0.9 1.5
v 0.5 -0.8 1.5
v 0.6 -1 1.5
v 0.6 -0.9 1.5
v 0.7 -1 1.5
v 0.7 -0.9 1.5
v 0.9 -0.9 1.5
v 0.9 -0.8 1.5
v 1.1 -0.9 1.5
v 1.1 -0.8 1.5
v 1.2 -1 1.5
v 1.2 -0.9 1.5
v 1.3 -1 1.5
v 1.3 -0.9 1.5
v 1.5 -2.2 1.5
v 1.5 -0.9 1.5
v 1.5 -0.7 1.5
v -1.5 -2.2 -1.5
v -1.5 -0.9 -1.5
v -1.5 -0.7 -1.5
v -1.2 -1 -1.5
v -1.2 -0.9 -1.5
v -1 -1 -1.5
v -1 -0.9 -1.5
v -0.8 -1.1 -1.5
v -0.8 -1 -1.5
v -0.7 -1.1 -1.5
v -0.7 -1 -1.5
v -0.7 -0.9 -1.5
v -0.6 -1 -1.5
v -0.6 -0.9 -1.5
v -0.2 -1 -1.5
v -0.2 -0.9 -1.5
v 0.2 -1 -1.5
v 0.2 -0.9 -1.5
v 0.4 -1 -1.5
v 0.4 -0.9 -1.5
v 0.5 -1.1 -1.5
v 0.5 -1 -1.5
v 0.6 -1.1 -1.5
v 0.6 -1 -1.5
v 0.8 -1 -1.5
v 0.8 -0.9 -1.5
v 1 -0.9 -1.5
v 1 -0.8 -1.5
v 1.1 -1 -1.5
v 1.1 -0.8 -1.5
v 1.2 -1 -1.5
v 1.2 -0.9 -1.5
v 1.4 -0.9 -1.5
v 1.4 -0.8 -1.5
v 1.5 -2.2 -1.5
v 1.5 -0.8 -1.5
v 1.5 -0.7 -1.5
v -1.5 -2.2 1.5
v 1.5 -2.2 1.5
v -1.5 -2.2 0.8
v -1.4 -2.2 0.8
v 1.4 -2.2 0.8
v 1.5 -2.2 0.8
v -1.5 -2.2 -0.5
v -1.4 -2.2 -0.5
v -1.5 -2.2 -0.6
v -1.4 -2.2 -0.6
v -1.5 -2.2 -0.8
v -1.4 -2.2 -0.8
v 1.4 -2.2 -0.8
v 1.5 -2.2 -0.8
v -1.5 -2.2 -1.5
v 1.5 -2.2 -1.5
v -1.5 -0.7 1.5
v 1.5 -0.7 1.5
v -1.5 -0.7 0.8
v 0.7 -0.7 0.8
v 1.1 -0.7 0.8
v 1.4 -0.7 0.8
v 1.5 -0.7 0.8
v 0.7 -0.7 0.7
v 1.1 -0.7 0.7
v 1.4 -0.7 0.7
v 1.5 -0.7 0.7
v -1.2 -0.7 0.6
v -0.6 -0.7 0.6
v 0 -0.7 0.6
v 0.5 -0.7 0.6
v 0.9 -0.7 0.6
v 1.3 -0.7 0.6
v -1.2 -0.7 0.5
v -0.6 -0.7 0.5
v 0 -0.7 0.5
v 0.5 -0.7 0.5
v 0.9 -0.7 0.5
v 1.3 -0.7 0.5
v 1.4 -0.7 0.4
v 1.5 -0.7 0.4
v -1.5 -0.7 0.3
v -1.2 -0.7 0.3
v -0.4 -0.7 0.3
v 0.2 -0.7 0.3
v 0.4 -0.7 0.3
v 0.6 -0.7 0.3
v 0.8 -0.7 0.3
v 1.2 -0.7 0.3
v 1.4 -0.7 0.3
v 1.5 -0.7 0.3
v -1.5 -0.7 0.2
v -1.2 -0.7 0.2
v -0.4 -0.7 0.2
v 0.2 -0.7 0.2
v 0.4 -0.7 0.2
v 0.6 -0.7 0.2
v 0.8 -0.7 0.2
v 1.2 -0.7 0.2
v -1 -0.7 0.1
v -0.3 -0.7 0.1
v 0.4 -0.7 0.1
v 0.8 -0.7 0.1
v -1 -0.7 0
v -0.3 -0.7 0
v 0.4 -0.7 0
v 0.8 -0.7 0
v 1.4 -0.7 0
v 1.5 -0.7 0
v -1.5 -0.7 -0.1
v -1.4 -0.7 -0.1
v 1.4 -0.7 -0.1
v 1.5 -0.7 -0.1
v -1.5 -0.7 -0.2
v -1.4 -0.7 -0.2
v -0.9 -0.7 -0.2
v -0.5 -0.7 -0.2
v 0.1 -0.7 -0.2
v 0.3 -0.7 -0.2
v 0.8 -0.7 -0.2
v -1.4 -0.7 -0.3
v -0.9 -0.7 -0.3
v -0.5 -0.7 -0.3
v 0.1 -0.7 -0.3
v 0.3 -0.7 -0.3
v 0.8 -0.7 -0.3
v 0.7 -0.7 -0.4
v 1.3 -0.7 -0.4
v -1.5 -0.7 -0.5
v -1.2 -0.7 -0.5
v -0.8 -0.7 -0.5
v -0.1 -0.7 -0.5
v 0.7 -0.7 -0.5
v 1.3 -0.7 -0.5
v 1.4 -0.7 -0.5
v 1.5 -0.7 -0.5
v -1.5 -0.7 -0.6
v -1.2 -0.7 -0.6
v -0.8 -0.7 -0.6
v -0.1 -0.7 -0.6
v 1.4 -0.7 -0.6
v 1.5 -0.7 -0.6
v -1.5 -0.7 -0.8
v 1.5 -0.7 -0.8
v -1.5 -0.7 -1.5
v 1.5 -0.7 -1.5

# faces
f 7/2/1 3/2/1 2/2/1
f 8/2/1 3/2/1 7/2/1
f 9/2/1 3/2/1 8/2/1
f 10/2/1 3/2/1 9/2/1
f 11/2/1 3/2/1 10/2/1
f 12/2/1 3/2/1 11/2/1
f 13/1/1 4/1/1 3/1/1
f 13/2/1 3/2/1 12/2/1
f 14/2/1 5/2/1 4/2/1
f 14/1/1 4/1/1 13/1/1
f 15/2/1 9/2/1 8/2/1
f 15/1/1 10/1/1 9/1/1
f 16/2/1 11/2/1 10/2/1
f 16/1/1 10/1/1 15/1/1
f 17/2/1 11/2/1 16/2/1
f 18/2/1 11/2/1 17/2/1
f 19/2/1 15/2/1 8/2/1
f 19/2/1 16/2/1 15/2/1
f 19/2/1 17/2/1 16/2/1
f 20/2/1 17/2/1 19/2/1
f 21/2/1 7/2/1 2/2/1
f 21/1/1 8/1/1 7/1/1
f 22/2/1 19/2/1 8/2/1
f 22/1/1 8/1/1 21/1/1
f 23/1/1 12/1/1 11/1/1
f 23/2/1 11/2/1 18/2/1
f 24/2/1 13/2/1 12/2/1
f 24/1/1 12/1/1 23/1/1
f 24/2/1 14/2/1 13/2/1
f 25/2/1 19/2/1 22/2/1
f 25/1/1 20/1/1 19/1/1
f 25/2/1 22/2/1 21/2/1
f 26/2/1 17/2/1 20/2/1
f 26/1/1 20/1/1 25/1/1
f 27/1/1 18/1/1 17/1/1
f 27/2/1 17/2/1 26/2/1
f 28/2/1 23/2/1 18/2/1
f 28/1/1 18/1/1 27/1/1
f 28/2/1 24/2/1 23/2/1
f 29/2/1 14/2/1 24/2/1
f 29/2/1 24/2/1 28/2/1
f 30/2/1 5/2/1 14/2/1
f 30/2/1 14/2/1 29/2/1
f 31/2/1 28/2/1 27/2/1
f 31/2/1 27/2/1 26/2/1
f 31/2/1 25/2/1 21/2/1
f 31/2/1 21/2/1 2/2/1
f 31/2/1 29/2/1 28/2/1
f 31/2/1 26/2/1 25/2/1
f 32/2/1 29/2/1 31/2/1
f 33/2/1 29/2/1 32/2/1
f 34/2/1 29/2/1 33/2/1
f 35/2/1 33/2/1 32/2/1
f 36/2/1 33/2/1 35/2/1
f 37/3/1 6/3/1 5/3/1
f 38/3/1 6/3/1 37/3/1
f 39/3/1 2/3/1 1/3/1
f 40/3/1 2/3/1 39/3/1
f 41/2/1 5/2/1 30/2/1
f 41/3/1 37/3/1 5/3/1
f 42/3/1 37/3/1 41/3/1
f 43/3/1 37/3/1 42/3/1
f 44/4/1 38/4/1 37/4/1
f 44/3/1 37/3/1 43/3/1
f 45/3/1 6/3/1 38/3/1
f 45/4/1 38/4/1 44/4/1
f 46/3/1 6/3/1 45/3/1
f 47/3/1 39/3/1 1/3/1
f 48/3/1 39/3/1 47/3/1
f 49/3/1 39/3/1 48/3/1
f 50/4/1 40/4/1 39/4/1
f 50/3/1 39/3/1 49/3/1
f 51/3/1 2/3/1 40/3/1
f 51/4/1 40/4/1 50/4/1
f 52/2/1 31/2/1 2/2/1
f 52/3/1 2/3/1 51/3/1
f 53/1/1 32/1/1 31/1/1
f 53/2/1 31/2/1 52/2/1
f 54/2/1 35/2/1 32/2/1
f 54/1/1 32/1/1 53/1/1
f 55/3/1 43/3/1 42/3/1
f 55/4/1 42/4/1 41/4/1
f 56/4/1 44/4/1 43/4/1
f 56/3/1 43/3/1 55/3/1
f 56/4/1 45/4/1 44/4/1
f 56/4/1 46/4/1 45/4/1
f 57/3/1 6/3/1 46/3/1
f 57/4/1 46/4/1 56/4/1
f 58/3/1 6/3/1 57/3/1
f 59/3/1 49/3/1 48/3/1
f 59/4/1 48/4/1 47/4/1
f 60/4/1 50/4/1 49/4/1
f 60/3/1 49/3/1 59/3/1
f 60/4/1 51/4/1 50/4/1
f 60/4/1 52/4/1 51/4/1
f 61/4/1 59/4/1 47/4/1
f 61/4/1 60/4/1 59/4/1
f 62/4/1 52/4/1 60/4/1
f 62/4/1 60/4/1 61/4/1
f 62/2/1 53/2/1 52/2/1
f 62/2/1 54/2/1 53/2/1
f 63/1/1 36/1/1 35/1/1
f 63/2/1 54/2/1 62/2/1
f 63/2/1 35/2/1 54/2/1
f 64/2/1 33/2/1 36/2/1
f 64/1/1 36/1/1 63/1/1
f 65/1/1 34/1/1 33/1/1
f 65/2/1 33/2/1 64/2/1
f 66/2/1 29/2/1 34/2/1
f 66/1/1 34/1/1 65/1/1
f 67/1/1 30/1/1 29/1/1
f 67/2/1 29/2/1 66/2/1
f 68/2/1 41/2/1 30/2/1
f 68/1/1 30/1/1 67/1/1
f 69/4/1 55/4/1 41/4/1
f 69/2/1 41/2/1 68/2/1
f 69/4/1 57/4/1 56/4/1
f 69/4/1 56/4/1 55/4/1
f 69/4/1 58/4/1 57/4/1
f 70/4/1 58/4/1 69/4/1
f 72/2/2 73/2/2 75/2/2
f 75/2/2 73/2/2 76/2/2
f 76/2/2 73/2/2 77/2/2
f 77/2/2 73/2/2 78/2/2
f 76/2/2 77/2/2 79/2/2
f 79/2/2 77/2/2 80/2/2
f 72/2/2 75/2/2 81/2/2
f 75/1/2 76/1/2 81/1/2
f 76/2/2 79/2/2 82/2/2
f 81/1/2 76/1/2 82/1/2
f 80/2/2 77/2/2 83/2/2
f 83/2/2 77/2/2 84/2/2
f 82/2/2 79/2/2 85/2/2
f 81/2/2 82/2/2 85/2/2
f 85/2/2 79/2/2 86/2/2
f 79/1/2 80/1/2 87/1/2
f 86/2/2 79/2/2 87/2/2
f 80/2/2 83/2/2 88/2/2
f 87/1/2 80/1/2 88/1/2
f 78/2/2 73/2/2 89/2/2
f 89/2/2 73/2/2 90/2/2
f 84/2/2 77/2/2 91/2/2
f 77/1/2 78/1/2 91/1/2
f 78/2/2 89/2/2 92/2/2
f 91/1/2 78/1/2 92/1/2
f 71/3/2 72/3/2 93/3/2
f 72/2/2 81/2/2 94/2/2
f 93/3/2 72/3/2 94/3/2
f 81/2/2 85/2/2 94/2/2
f 94/2/2 85/2/2 95/2/2
f 73/3/2 74/3/2 96/3/2
f 96/3/2 74/3/2 97/3/2
f 71/3/2 93/3/2 98/3/2
f 98/3/2 93/3/2 99/3/2
f 99/3/2 93/3/2 100/3/2
f 93/4/2 94/4/2 101/4/2
f 100/3/2 93/3/2 101/3/2
f 73/3/2 96/3/2 102/3/2
f 102/3/2 96/3/2 103/3/2
f 103/3/2 96/3/2 104/3/2
f 96/4/2 97/4/2 105/4/2
f 104/3/2 96/3/2 105/3/2
f 97/3/2 74/3/2 106/3/2
f 105/4/2 97/4/2 106/4/2
f 106/3/2 74/3/2 107/3/2
f 99/3/2 100/3/2 108/3/2
f 98/4/2 99/4/2 108/4/2
f 100/4/2 101/4/2 109/4/2
f 108/3/2 100/3/2 109/3/2
f 90/2/2 73/2/2 110/2/2
f 73/3/2 102/3/2 110/3/2
f 102/4/2 103/4/2 111/4/2
f 110/3/2 102/3/2 111/3/2
f 103/3/2 104/3/2 112/3/2
f 111/4/2 103/4/2 112/4/2
f 104/4/2 105/4/2 113/4/2
f 112/3/2 104/3/2 113/3/2
f 106/4/2 107/4/2 113/4/2
f 105/4/2 106/4/2 113/4/2
f 107/3/2 74/3/2 114/3/2
f 113/4/2 107/4/2 114/4/2
f 114/3/2 74/3/2 115/3/2
f 98/4/2 108/4/2 116/4/2
f 108/4/2 109/4/2 116/4/2
f 109/4/2 101/4/2 117/4/2
f 116/4/2 109/4/2 117/4/2
f 94/1/2 95/1/2 117/1/2
f 101/4/2 94/4/2 117/4/2
f 95/2/2 85/2/2 118/2/2
f 117/1/2 95/1/2 118/1/2
f 85/1/2 86/1/2 119/1/2
f 118/2/2 85/2/2 119/2/2
f 86/2/2 87/2/2 120/2/2
f 119/1/2 86/1/2 120/1/2
f 87/2/2 88/2/2 120/2/2
f 88/2/2 83/2/2 121/2/2
f 120/2/2 88/2/2 121/2/2
f 83/1/2 84/1/2 121/1/2
f 91/2/2 92/2/2 122/2/2
f 121/1/2 84/1/2 122/1/2
f 84/2/2 91/2/2 122/2/2
f 92/2/2 89/2/2 123/2/2
f 122/2/2 92/2/2 123/2/2
f 89/1/2 90/1/2 123/1/2
f 90/2/2 110/2/2 124/2/2
f 123/1/2 90/1/2 124/1/2
f 110/4/2 111/4/2 125/4/2
f 124/2/2 110/2/2 125/2/2
f 111/4/2 112/4/2 125/4/2
f 114/4/2 115/4/2 125/4/2
f 113/4/2 114/4/2 125/4/2
f 112/4/2 113/4/2 125/4/2
f 125/4/2 115/4/2 126/4/2
f 130/3/3 128/3/3 127/3/3
f 130/4/3 129/4/3 128/4/3
f 131/4/3 129/4/3 130/4/3
f 132/3/3 130/3/3 127/3/3
f 132/3/3 131/3/3 130/3/3
f 133/4/3 129/4/3 131/4/3
f 133/3/3 131/3/3 132/3/3
f 134/3/3 132/3/3 127/3/3
f 135/4/3 133/4/3 132/4/3
f 135/3/3 132/3/3 134/3/3
f 136/3/3 134/3/3 127/3/3
f 136/4/3 135/4/3 134/4/3
f 137/4/3 133/4/3 135/4/3
f 137/4/3 135/4/3 136/4/3
f 138/3/3 136/3/3 127/3/3
f 138/3/3 137/3/3 136/3/3
f 139/4/3 133/4/3 137/4/3
f 139/3/3 137/3/3 138/3/3
f 140/3/3 138/3/3 127/3/3
f 140/4/3 139/4/3 138/4/3
f 141/4/3 129/4/3 133/4/3
f 141/4/3 139/4/3 140/4/3
f 141/4/3 133/4/3 139/4/3
f 142/3/3 140/3/3 127/3/3
f 142/3/3 141/3/3 140/3/3
f 143/3/3 141/3/3 142/3/3
f 144/4/3 143/4/3 142/4/3
f 144/3/3 141/3/3 143/3/3
f 145/4/3 129/4/3 141/4/3
f 145/3/3 141/3/3 144/3/3
f 146/4/3 144/4/3 142/4/3
f 146/3/3 142/3/3 127/3/3
f 146/4/3 145/4/3 144/4/3
f 147/4/3 145/4/3 146/4/3
f 148/3/3 147/3/3 146/3/3
f 148/4/3 145/4/3 147/4/3
f 149/4/3 129/4/3 145/4/3
f 149/4/3 145/4/3 148/4/3
f 150/3/3 148/3/3 146/3/3
f 150/3/3 149/3/3 148/3/3
f 151/4/3 129/4/3 149/4/3
f 151/3/3 149/3/3 150/3/3
f 152/3/3 150/3/3 146/3/3
f 152/3/3 146/3/3 127/3/3
f 153/4/3 151/4/3 150/4/3
f 153/3/3 150/3/3 152/3/3
f 154/3/3 152/3/3 127/3/3
f 154/4/3 153/4/3 152/4/3
f 155/4/3 151/4/3 153/4/3
f 155/4/3 153/4/3 154/4/3
f 156/3/3 155/3/3 154/3/3
f 156/4/3 151/4/3 155/4/3
f 157/4/3 129/4/3 151/4/3
f 157/4/3 151/4/3 156/4/3
f 158/3/3 156/3/3 154/3/3
f 158/3/3 157/3/3 156/3/3
f 159/4/3 129/4/3 157/4/3
f 159/3/3 157/3/3 158/3/3
f 160/3/3 158/3/3 154/3/3
f 160/4/3 159/4/3 158/4/3
f 161/4/3 129/4/3 159/4/3
f 161/4/3 159/4/3 160/4/3
f 162/3/3 160/3/3 154/3/3
f 162/3/3 161/3/3 160/3/3
f 163/4/3 129/4/3 161/4/3
f 163/3/3 161/3/3 162/3/3
f 164/3/3 162/3/3 154/3/3
f 164/3/3 154/3/3 127/3/3
f 165/4/3 163/4/3 162/4/3
f 165/3/3 162/3/3 164/3/3
f 166/3/3 164/3/3 127/3/3
f 166/4/3 165/4/3 164/4/3
f 167/4/3 163/4/3 165/4/3
f 167/4/3 165/4/3 166/4/3
f 168/3/3 167/3/3 166/3/3
f 168/4/3 163/4/3 167/4/3
f 169/4/3 129/4/3 163/4/3
f 169/4/3 163/4/3 168/4/3
f 170/3/3 168/3/3 166/3/3
f 170/3/3 169/3/3 168/3/3
f 171/4/3 129/4/3 169/4/3
f 171/3/3 169/3/3 170/3/3
f 172/3/3 170/3/3 166/3/3
f 172/3/3 166/3/3 127/3/3
f 173/4/3 171/4/3 170/4/3
f 173/3/3 170/3/3 172/3/3
f 174/3/3 172/3/3 127/3/3
f 174/4/3 173/4/3 172/4/3
f 175/4/3 171/4/3 173/4/3
f 175/4/3 173/4/3 174/4/3
f 176/3/3 174/3/3 127/3/3
f 176/3/3 175/3/3 174/3/3
f 177/4/3 171/4/3 175/4/3
f 177/3/3 175/3/3 176/3/3
f 178/4/3 129/4/3 171/4/3
f 178/4/3 171/4/3 177/4/3
f 179/3/4 180/3/4 182/3/4
f 180/4/4 181/4/4 183/4/4
f 182/3/4 180/3/4 183/3/4
f 179/3/4 182/3/4 184/3/4
f 182/4/4 183/4/4 184/4/4
f 183/4/4 181/4/4 185/4/4
f 184/4/4 183/4/4 185/4/4
f 179/3/4 184/3/4 186/3/4
f 184/3/4 185/3/4 186/3/4
f 186/3/4 185/3/4 187/3/4
f 179/3/4 186/3/4 188/3/4
f 186/4/4 187/4/4 188/4/4
f 187/3/4 185/3/4 189/3/4
f 188/4/4 187/4/4 189/4/4
f 185/4/4 181/4/4 190/4/4
f 189/3/4 185/3/4 190/3/4
f 188/3/4 189/3/4 191/3/4
f 189/4/4 190/4/4 191/4/4
f 190/4/4 181/4/4 192/4/4
f 191/4/4 190/4/4 192/4/4
f 188/3/4 191/3/4 193/3/4
f 191/3/4 192/3/4 193/3/4
f 192/4/4 181/4/4 194/4/4
f 193/3/4 192/3/4 194/3/4
f 188/3/4 193/3/4 195/3/4
f 193/4/4 194/4/4 195/4/4
f 194/4/4 181/4/4 196/4/4
f 195/4/4 194/4/4 196/4/4
f 188/3/4 195/3/4 197/3/4
f 195/3/4 196/3/4 197/3/4
f 196/4/4 181/4/4 198/4/4
f 197/3/4 196/3/4 198/3/4
f 188/3/4 197/3/4 199/3/4
f 179/3/4 188/3/4 199/3/4
f 197/4/4 198/4/4 200/4/4
f 199/3/4 197/3/4 200/3/4
f 179/3/4 199/3/4 201/3/4
f 199/4/4 200/4/4 201/4/4
f 200/4/4 198/4/4 202/4/4
f 201/4/4 200/4/4 202/4/4
f 201/3/4 202/3/4 203/3/4
f 202/4/4 198/4/4 203/4/4
f 198/4/4 181/4/4 204/4/4
f 203/4/4 198/4/4 204/4/4
f 203/3/4 204/3/4 205/3/4
f 204/4/4 181/4/4 205/4/4
f 205/4/4 181/4/4 206/4/4
f 201/3/4 203/3/4 207/3/4
f 203/3/4 205/3/4 207/3/4
f 205/3/4 206/3/4 207/3/4
f 206/4/4 181/4/4 208/4/4
f 207/3/4 206/3/4 208/3/4
f 201/3/4 207/3/4 209/3/4
f 207/4/4 208/4/4 209/4/4
f 209/4/4 208/4/4 210/4/4
f 209/3/4 210/3/4 211/3/4
f 210/4/4 208/4/4 211/4/4
f 208/4/4 181/4/4 212/4/4
f 211/4/4 208/4/4 212/4/4
f 209/3/4 211/3/4 213/3/4
f 179/3/4 201/3/4 213/3/4
f 211/3/4 212/3/4 213/3/4
f 201/3/4 209/3/4 213/3/4
f 212/4/4 181/4/4 214/4/4
f 213/3/4 212/3/4 214/3/4
f 214/4/4 181/4/4 215/4/4
f 218/3/5 217/3/5 216/3/5
f 219/3/5 217/3/5 218/3/5
f 220/3/5 217/3/5 219/3/5
f 221/3/5 217/3/5 220/3/5
f 222/2/5 219/2/5 218/2/5
f 223/3/5 220/3/5 219/3/5
f 223/2/5 219/2/5 222/2/5
f 224/1/5 223/1/5 222/1/5
f 225/3/5 220/3/5 223/3/5
f 225/1/5 223/1/5 224/1/5
f 226/2/5 225/2/5 224/2/5
f 227/3/5 220/3/5 225/3/5
f 227/2/5 225/2/5 226/2/5
f 228/2/5 221/2/5 220/2/5
f 228/3/5 220/3/5 227/3/5
f 229/2/5 221/2/5 228/2/5
f 230/3/5 227/3/5 226/3/5
f 230/3/5 228/3/5 227/3/5
f 230/3/5 229/3/5 228/3/5
f 231/3/5 229/3/5 230/3/5
f 232/4/6 233/4/6 234/4/6
f 234/4/6 233/4/6 235/4/6
f 235/4/6 233/4/6 236/4/6
f 236/4/6 233/4/6 237/4/6
f 237/4/6 233/4/6 238/4/6
f 234/2/6 235/2/6 239/2/6
f 235/1/6 236/1/6 239/1/6
f 236/2/6 237/2/6 240/2/6
f 239/1/6 236/1/6 240/1/6
f 237/1/6 238/1/6 241/1/6
f 240/2/6 237/2/6 241/2/6
f 241/1/6 238/1/6 242/1/6
f 239/2/6 240/2/6 243/2/6
f 234/2/6 239/2/6 243/2/6
f 241/2/6 242/2/6 243/2/6
f 240/2/6 241/2/6 243/2/6
f 243/2/6 242/2/6 244/2/6
f 244/2/6 242/2/6 245/2/6
f 245/2/6 242/2/6 246/2/6
f 246/2/6 242/2/6 247/2/6
f 247/2/6 242/2/6 248/2/6
f 234/2/6 243/2/6 249/2/6
f 243/1/6 244/1/6 249/1/6
f 244/2/6 245/2/6 250/2/6
f 249/1/6 244/1/6 250/1/6
f 245/1/6 246/1/6 251/1/6
f 250/2/6 245/2/6 251/2/6
f 246/2/6 247/2/6 252/2/6
f 251/1/6 246/1/6 252/1/6
f 247/1/6 248/1/6 253/1/6
f 252/2/6 247/2/6 253/2/6
f 248/2/6 242/2/6 254/2/6
f 253/1/6 248/1/6 254/1/6
f 252/2/6 253/2/6 255/2/6
f 254/2/6 242/2/6 255/2/6
f 253/2/6 254/2/6 255/2/6
f 250/2/6 251/2/6 255/2/6
f 249/2/6 250/2/6 255/2/6
f 251/2/6 252/2/6 255/2/6
f 255/2/6 242/2/6 256/2/6
f 234/2/6 249/2/6 257/2/6
f 249/2/6 255/2/6 257/2/6
f 257/2/6 255/2/6 258/2/6
f 258/2/6 255/2/6 259/2/6
f 259/2/6 255/2/6 260/2/6
f 260/2/6 255/2/6 261/2/6
f 261/2/6 255/2/6 262/2/6
f 262/2/6 255/2/6 263/2/6
f 263/2/6 255/2/6 264/2/6
f 255/1/6 256/1/6 265/1/6
f 264/2/6 255/2/6 265/2/6
f 265/1/6 256/1/6 266/1/6
f 257/1/6 258/1/6 267/1/6
f 258/2/6 259/2/6 268/2/6
f 267/1/6 258/1/6 268/1/6
f 259/1/6 260/1/6 269/1/6
f 268/2/6 259/2/6 269/2/6
f 260/2/6 261/2/6 270/2/6
f 269/1/6 260/1/6 270/1/6
f 261/1/6 262/1/6 271/1/6
f 270/2/6 261/2/6 271/2/6
f 262/2/6 263/2/6 272/2/6
f 271/1/6 262/1/6 272/1/6
f 263/1/6 264/1/6 273/1/6
f 272/2/6 263/2/6 273/2/6
f 264/2/6 265/2/6 274/2/6
f 273/1/6 264/1/6 274/1/6
f 265/2/6 266/2/6 274/2/6
f 271/2/6 272/2/6 275/2/6
f 267/2/6 268/2/6 275/2/6
f 273/2/6 274/2/6 275/2/6
f 272/2/6 273/2/6 275/2/6
f 270/2/6 271/2/6 275/2/6
f 269/2/6 270/2/6 275/2/6
f 268/2/6 269/2/6 275/2/6
f 275/2/6 274/2/6 276/2/6
f 276/2/6 274/2/6 277/2/6
f 277/2/6 274/2/6 278/2/6
f 267/2/6 275/2/6 279/2/6
f 275/1/6 276/1/6 279/1/6
f 276/2/6 277/2/6 280/2/6
f 279/1/6 276/1/6 280/1/6
f 277/1/6 278/1/6 281/1/6
f 280/2/6 277/2/6 281/2/6
f 278/2/6 274/2/6 282/2/6
f 281/1/6 278/1/6 282/1/6
f 274/2/6 266/2/6 283/2/6
f 282/2/6 274/2/6 283/2/6
f 283/2/6 266/2/6 284/2/6
f 281/2/6 282/2/6 285/2/6
f 280/2/6 281/2/6 285/2/6
f 279/2/6 280/2/6 285/2/6
f 282/2/6 283/2/6 285/2/6
f 267/2/6 279/2/6 285/2/6
f 285/2/6 283/2/6 286/2/6
f 283/1/6 284/1/6 287/1/6
f 286/2/6 283/2/6 287/2/6
f 287/1/6 284/1/6 288/1/6
f 285/1/6 286/1/6 289/1/6
f 286/2/6 287/2/6 290/2/6
f 289/1/6 286/1/6 290/1/6
f 287/2/6 288/2/6 290/2/6
f 290/2/6 288/2/6 291/2/6
f 291/2/6 288/2/6 292/2/6
f 292/2/6 288/2/6 293/2/6
f 293/2/6 288/2/6 294/2/6
f 294/2/6 288/2/6 295/2/6
f 289/2/6 290/2/6 296/2/6
f 290/1/6 291/1/6 296/1/6
f 291/2/6 292/2/6 297/2/6
f 296/1/6 291/1/6 297/1/6
f 292/1/6 293/1/6 298/1/6
f 297/2/6 292/2/6 298/2/6
f 293/2/6 294/2/6 299/2/6
f 298/1/6 293/1/6 299/1/6
f 294/1/6 295/1/6 300/1/6
f 299/2/6 294/2/6 300/2/6
f 295/2/6 288/2/6 301/2/6
f 300/1/6 295/1/6 301/1/6
f 299/2/6 300/2/6 302/2/6
f 298/2/6 299/2/6 302/2/6
f 300/2/6 301/2/6 302/2/6
f 297/2/6 298/2/6 302/2/6
f 296/2/6 297/2/6 302/2/6
f 301/2/6 288/2/6 303/2/6
f 302/2/6 301/2/6 303/2/6
f 296/2/6 302/2/6 304/2/6
f 289/2/6 296/2/6 304/2/6
f 304/2/6 302/2/6 305/2/6
f 305/2/6 302/2/6 306/2/6
f 306/2/6 302/2/6 307/2/6
f 302/1/6 303/1/6 308/1/6
f 307/2/6 302/2/6 308/2/6
f 303/2/6 288/2/6 309/2/6
f 308/1/6 303/1/6 309/1/6
f 309/2/6 288/2/6 310/2/6
f 310/2/6 288/2/6 311/2/6
f 304/1/6 305/1/6 312/1/6
f 305/2/6 306/2/6 313/2/6
f 312/1/6 305/1/6 313/1/6
f 306/1/6 307/1/6 314/1/6
f 313/2/6 306/2/6 314/2/6
f 307/2/6 308/2/6 315/2/6
f 314/1/6 307/1/6 315/1/6
f 308/2/6 309/2/6 315/2/6
f 309/2/6 310/2/6 315/2/6
f 310/1/6 311/1/6 316/1/6
f 315/2/6 310/2/6 316/2/6
f 316/1/6 311/1/6 317/1/6
f 313/2/6 314/2/6 318/2/6
f 312/2/6 313/2/6 318/2/6
f 316/2/6 317/2/6 318/2/6
f 315/2/6 316/2/6 318/2/6
f 314/2/6 315/2/6 318/2/6
f 318/2/6 317/2/6 319/2/6
f 318/4/6 319/4/6 320/4/6
f 320/4/6 319/4/6 321/4/6
