# MagicaVoxel @ Ephtracy

# group
o Lava - 5

# material
mtllib Forest-5-Lava - 5.mtl
usemtl palette

# normals
vn -1 0 0
vn 1 0 0
vn 0 0 1
vn 0 0 -1
vn 0 -1 0
vn 0 1 0

# texcoords
vt 0.900391 0.5
vt 0.931641 0.5
vt 0.974609 0.5

# verts
v -1.5 -2.2 1.5
v -1.5 -2.2 0.8
v -1.5 -2.2 -0.8
v -1.5 -2.2 -1.5
v -1.5 -1.9 -0.7
v -1.5 -1.9 -0.8
v -1.5 -1.8 -0.5
v -1.5 -1.8 -0.6
v -1.5 -1.6 -0.2
v -1.5 -1.6 -0.3
v -1.5 -1.5 0.6
v -1.5 -1.5 0.5
v -1.5 -1.4 0
v -1.5 -1.4 -0.1
v -1.5 -1.3 -0.7
v -1.5 -1.3 -0.8
v -1.5 -1.2 0.2
v -1.5 -1.2 0.1
v -1.5 -1.2 -0.2
v -1.5 -1.2 -0.3
v -1.5 -1.2 -0.5
v -1.5 -1.2 -0.6
v -1.5 -0.9 -0.2
v -1.5 -0.9 -0.3
v -1.5 -0.8 0.6
v -1.5 -0.8 0.5
v -1.5 -0.8 0
v -1.5 -0.8 -0.1
v -1.5 -0.7 0.8
v -1.5 -0.7 0.2
v -1.5 -0.7 0.1
v -1.5 -0.7 -0.2
v -1.5 -0.7 -0.3
v -1.5 -0.7 -0.8
v -1.5 -0.6 1.5
v -1.5 -0.6 0.8
v -1.5 -0.6 -0.8
v -1.5 -0.6 -1.5
v 1.5 -2.2 1.5
v 1.5 -2.2 0.8
v 1.5 -2.2 -0.8
v 1.5 -2.2 -1.5
v 1.5 -2 -0.3
v 1.5 -2 -0.4
v 1.5 -1.9 0.5
v 1.5 -1.9 0.4
v 1.5 -1.9 -0.1
v 1.5 -1.9 -0.2
v 1.5 -1.7 0.8
v 1.5 -1.7 0.7
v 1.5 -1.7 0.2
v 1.5 -1.7 0.1
v 1.5 -1.6 -0.3
v 1.5 -1.6 -0.4
v 1.5 -1.6 -0.5
v 1.5 -1.6 -0.6
v 1.5 -1.3 0.5
v 1.5 -1.3 0.4
v 1.5 -1.2 0.8
v 1.5 -1.2 0.7
v 1.5 -1.1 -0.1
v 1.5 -1.1 -0.2
v 1.5 -0.9 0.4
v 1.5 -0.9 0.3
v 1.5 -0.9 -0.2
v 1.5 -0.9 -0.3
v 1.5 -0.8 0.6
v 1.5 -0.8 0.5
v 1.5 -0.7 0.8
v 1.5 -0.7 0.6
v 1.5 -0.7 0.5
v 1.5 -0.7 0.4
v 1.5 -0.7 0.3
v 1.5 -0.7 0.2
v 1.5 -0.7 0.1
v 1.5 -0.7 -0.2
v 1.5 -0.7 -0.3
v 1.5 -0.7 -0.5
v 1.5 -0.7 -0.6
v 1.5 -0.7 -0.8
v 1.5 -0.6 1.5
v 1.5 -0.6 0.8
v 1.5 -0.6 -0.8
v 1.5 -0.6 -1.5
v -1.5 -2.2 1.5
v -1.5 -0.6 1.5
v 1.5 -2.2 1.5
v 1.5 -0.6 1.5
v -1.5 -0.7 -0.8
v -1.5 -0.6 -0.8
v 1.5 -0.7 -0.8
v 1.5 -0.6 -0.8
v -1.5 -0.7 0.8
v -1.5 -0.6 0.8
v 1.5 -0.7 0.8
v 1.5 -0.6 0.8
v -1.5 -2.2 -1.5
v -1.5 -0.6 -1.5
v 1.5 -2.2 -1.5
v 1.5 -0.6 -1.5
v -1.5 -2.2 1.5
v 1.5 -2.2 1.5
v -1.5 -2.2 0.8
v 1.5 -2.2 0.8
v -1.5 -2.2 -0.8
v 1.5 -2.2 -0.8
v -1.5 -2.2 -1.5
v 1.5 -2.2 -1.5
v -1.5 -0.7 0.8
v 1.5 -0.7 0.8
v -1.2 -0.7 0.6
v 1.5 -0.7 0.6
v -1.2 -0.7 0.5
v 1.5 -0.7 0.5
v -1.3 -0.7 0.4
v -0.7 -0.7 0.4
v -0.2 -0.7 0.4
v 0.3 -0.7 0.4
v 0.7 -0.7 0.4
v 1.5 -0.7 0.4
v -1.3 -0.7 0.3
v -0.7 -0.7 0.3
v -0.2 -0.7 0.3
v 0.3 -0.7 0.3
v 0.7 -0.7 0.3
v 1.5 -0.7 0.3
v -1.5 -0.7 0.2
v -0.8 -0.7 0.2
v -0.6 -0.7 0.2
v 1.5 -0.7 0.2
v -1.5 -0.7 0.1
v -0.8 -0.7 0.1
v -0.6 -0.7 0.1
v 1.5 -0.7 0.1
v -1 -0.7 0
v 0.1 -0.7 0
v 0.4 -0.7 0
v 0.7 -0.7 0
v -1 -0.7 -0.1
v 0.1 -0.7 -0.1
v 0.4 -0.7 -0.1
v 0.7 -0.7 -0.1
v -1.5 -0.7 -0.2
v 1.5 -0.7 -0.2
v -1.5 -0.7 -0.3
v 1.5 -0.7 -0.3
v -0.7 -0.7 -0.5
v 1.5 -0.7 -0.5
v -0.7 -0.7 -0.6
v 1.5 -0.7 -0.6
v -1.5 -0.7 -0.8
v 1.5 -0.7 -0.8
v -1.5 -0.6 1.5
v 1.5 -0.6 1.5
v -1.5 -0.6 0.8
v 1.5 -0.6 0.8
v -1.5 -0.6 -0.8
v 1.5 -0.6 -0.8
v -1.5 -0.6 -1.5
v 1.5 -0.6 -1.5

# faces
f 5/2/1 3/2/1 2/2/1
f 6/3/1 4/3/1 3/3/1
f 6/2/1 3/2/1 5/2/1
f 7/2/1 5/2/1 2/2/1
f 8/2/1 5/2/1 7/2/1
f 9/2/1 7/2/1 2/2/1
f 10/2/1 7/2/1 9/2/1
f 11/2/1 9/2/1 2/2/1
f 12/2/1 9/2/1 11/2/1
f 13/2/1 9/2/1 12/2/1
f 14/2/1 9/2/1 13/2/1
f 15/1/1 6/1/1 5/1/1
f 15/2/1 5/2/1 8/2/1
f 16/3/1 4/3/1 6/3/1
f 16/1/1 6/1/1 15/1/1
f 17/2/1 13/2/1 12/2/1
f 18/2/1 13/2/1 17/2/1
f 19/2/1 9/2/1 14/2/1
f 19/1/1 10/1/1 9/1/1
f 20/2/1 7/2/1 10/2/1
f 20/1/1 10/1/1 19/1/1
f 21/1/1 8/1/1 7/1/1
f 21/2/1 7/2/1 20/2/1
f 22/2/1 15/2/1 8/2/1
f 22/1/1 8/1/1 21/1/1
f 22/2/1 16/2/1 15/2/1
f 23/2/1 21/2/1 20/2/1
f 23/2/1 20/2/1 19/2/1
f 23/2/1 22/2/1 21/2/1
f 23/2/1 19/2/1 14/2/1
f 24/2/1 22/2/1 23/2/1
f 25/2/1 11/2/1 2/2/1
f 25/1/1 12/1/1 11/1/1
f 26/2/1 17/2/1 12/2/1
f 26/1/1 12/1/1 25/1/1
f 27/2/1 13/2/1 18/2/1
f 27/1/1 14/1/1 13/1/1
f 28/2/1 23/2/1 14/2/1
f 28/1/1 14/1/1 27/1/1
f 29/3/1 2/3/1 1/3/1
f 29/2/1 26/2/1 25/2/1
f 29/2/1 25/2/1 2/2/1
f 30/2/1 17/2/1 26/2/1
f 30/2/1 26/2/1 29/2/1
f 30/1/1 18/1/1 17/1/1
f 31/2/1 28/2/1 27/2/1
f 31/1/1 18/1/1 30/1/1
f 31/2/1 27/2/1 18/2/1
f 32/2/1 23/2/1 28/2/1
f 32/2/1 28/2/1 31/2/1
f 32/1/1 24/1/1 23/1/1
f 33/2/1 22/2/1 24/2/1
f 33/1/1 24/1/1 32/1/1
f 34/2/1 16/2/1 22/2/1
f 34/2/1 22/2/1 33/2/1
f 34/3/1 4/3/1 16/3/1
f 35/3/1 29/3/1 1/3/1
f 36/3/1 29/3/1 35/3/1
f 37/3/1 4/3/1 34/3/1
f 38/3/1 4/3/1 37/3/1
f 40/2/2 41/2/2 43/2/2
f 43/2/2 41/2/2 44/2/2
f 40/2/2 43/2/2 45/2/2
f 45/2/2 43/2/2 46/2/2
f 46/2/2 43/2/2 47/2/2
f 47/2/2 43/2/2 48/2/2
f 39/3/2 40/3/2 49/3/2
f 40/2/2 45/2/2 49/2/2
f 49/2/2 45/2/2 50/2/2
f 46/2/2 47/2/2 51/2/2
f 51/2/2 47/2/2 52/2/2
f 48/2/2 43/2/2 53/2/2
f 43/1/2 44/1/2 53/1/2
f 44/2/2 41/2/2 54/2/2
f 53/1/2 44/1/2 54/1/2
f 54/2/2 41/2/2 55/2/2
f 55/2/2 41/2/2 56/2/2
f 45/1/2 46/1/2 57/1/2
f 50/2/2 45/2/2 57/2/2
f 46/2/2 51/2/2 58/2/2
f 57/1/2 46/1/2 58/1/2
f 39/3/2 49/3/2 59/3/2
f 49/1/2 50/1/2 59/1/2
f 57/2/2 58/2/2 60/2/2
f 59/1/2 50/1/2 60/1/2
f 50/2/2 57/2/2 60/2/2
f 52/2/2 47/2/2 61/2/2
f 47/1/2 48/1/2 61/1/2
f 48/2/2 53/2/2 62/2/2
f 61/1/2 48/1/2 62/1/2
f 54/2/2 55/2/2 62/2/2
f 53/2/2 54/2/2 62/2/2
f 60/2/2 58/2/2 63/2/2
f 59/2/2 60/2/2 63/2/2
f 58/2/2 51/2/2 63/2/2
f 63/2/2 51/2/2 64/2/2
f 62/2/2 55/2/2 65/2/2
f 61/2/2 62/2/2 65/2/2
f 65/2/2 55/2/2 66/2/2
f 59/2/2 63/2/2 67/2/2
f 67/2/2 63/2/2 68/2/2
f 39/3/2 59/3/2 69/3/2
f 59/2/2 67/2/2 69/2/2
f 67/1/2 68/1/2 70/1/2
f 69/2/2 67/2/2 70/2/2
f 68/2/2 63/2/2 71/2/2
f 70/1/2 68/1/2 71/1/2
f 63/1/2 64/1/2 72/1/2
f 71/2/2 63/2/2 72/2/2
f 64/2/2 51/2/2 73/2/2
f 72/1/2 64/1/2 73/1/2
f 51/1/2 52/1/2 74/1/2
f 73/2/2 51/2/2 74/2/2
f 52/2/2 61/2/2 75/2/2
f 74/1/2 52/1/2 75/1/2
f 61/2/2 65/2/2 75/2/2
f 65/1/2 66/1/2 76/1/2
f 75/2/2 65/2/2 76/2/2
f 66/2/2 55/2/2 77/2/2
f 76/1/2 66/1/2 77/1/2
f 55/1/2 56/1/2 78/1/2
f 77/2/2 55/2/2 78/2/2
f 56/2/2 41/2/2 79/2/2
f 78/1/2 56/1/2 79/1/2
f 41/3/2 42/3/2 80/3/2
f 79/2/2 41/2/2 80/2/2
f 39/3/2 69/3/2 81/3/2
f 81/3/2 69/3/2 82/3/2
f 80/3/2 42/3/2 83/3/2
f 83/3/2 42/3/2 84/3/2
f 87/3/3 86/3/3 85/3/3
f 88/3/3 86/3/3 87/3/3
f 91/3/3 90/3/3 89/3/3
f 92/3/3 90/3/3 91/3/3
f 93/3/4 94/3/4 95/3/4
f 95/3/4 94/3/4 96/3/4
f 97/3/4 98/3/4 99/3/4
f 99/3/4 98/3/4 100/3/4
f 103/3/5 102/3/5 101/3/5
f 104/3/5 102/3/5 103/3/5
f 105/2/5 104/2/5 103/2/5
f 106/2/5 104/2/5 105/2/5
f 107/3/5 106/3/5 105/3/5
f 108/3/5 106/3/5 107/3/5
f 109/2/6 110/2/6 111/2/6
f 111/2/6 110/2/6 112/2/6
f 109/2/6 111/2/6 113/2/6
f 111/1/6 112/1/6 113/1/6
f 113/1/6 112/1/6 114/1/6
f 109/2/6 113/2/6 115/2/6
f 113/2/6 114/2/6 115/2/6
f 115/2/6 114/2/6 116/2/6
f 116/2/6 114/2/6 117/2/6
f 117/2/6 114/2/6 118/2/6
f 118/2/6 114/2/6 119/2/6
f 119/2/6 114/2/6 120/2/6
f 109/2/6 115/2/6 121/2/6
f 115/1/6 116/1/6 121/1/6
f 116/2/6 117/2/6 122/2/6
f 121/1/6 116/1/6 122/1/6
f 117/1/6 118/1/6 123/1/6
f 122/2/6 117/2/6 123/2/6
f 118/2/6 119/2/6 124/2/6
f 123/1/6 118/1/6 124/1/6
f 119/1/6 120/1/6 125/1/6
f 124/2/6 119/2/6 125/2/6
f 125/1/6 120/1/6 126/1/6
f 123/2/6 124/2/6 127/2/6
f 109/2/6 121/2/6 127/2/6
f 125/2/6 126/2/6 127/2/6
f 124/2/6 125/2/6 127/2/6
f 122/2/6 123/2/6 127/2/6
f 121/2/6 122/2/6 127/2/6
f 127/2/6 126/2/6 128/2/6
f 128/2/6 126/2/6 129/2/6
f 129/2/6 126/2/6 130/2/6
f 127/1/6 128/1/6 131/1/6
f 128/2/6 129/2/6 132/2/6
f 131/1/6 128/1/6 132/1/6
f 129/1/6 130/1/6 133/1/6
f 132/2/6 129/2/6 133/2/6
f 133/1/6 130/1/6 134/1/6
f 131/2/6 132/2/6 135/2/6
f 132/2/6 133/2/6 135/2/6
f 133/2/6 134/2/6 135/2/6
f 135/2/6 134/2/6 136/2/6
f 136/2/6 134/2/6 137/2/6
f 137/2/6 134/2/6 138/2/6
f 131/2/6 135/2/6 139/2/6
f 135/1/6 136/1/6 139/1/6
f 136/2/6 137/2/6 140/2/6
f 139/1/6 136/1/6 140/1/6
f 137/1/6 138/1/6 141/1/6
f 140/2/6 137/2/6 141/2/6
f 138/2/6 134/2/6 142/2/6
f 141/1/6 138/1/6 142/1/6
f 140/2/6 141/2/6 143/2/6
f 139/2/6 140/2/6 143/2/6
f 141/2/6 142/2/6 143/2/6
f 131/2/6 139/2/6 143/2/6
f 142/2/6 134/2/6 144/2/6
f 143/2/6 142/2/6 144/2/6
f 143/1/6 144/1/6 145/1/6
f 145/1/6 144/1/6 146/1/6
f 145/2/6 146/2/6 147/2/6
f 147/2/6 146/2/6 148/2/6
f 145/2/6 147/2/6 149/2/6
f 147/1/6 148/1/6 149/1/6
f 149/1/6 148/1/6 150/1/6
f 145/2/6 149/2/6 151/2/6
f 149/2/6 150/2/6 151/2/6
f 151/2/6 150/2/6 152/2/6
f 153/3/6 154/3/6 155/3/6
f 155/3/6 154/3/6 156/3/6
f 157/3/6 158/3/6 159/3/6
f 159/3/6 158/3/6 160/3/6
