# MagicaVoxel @ Ephtracy

# group
o Cat

# material
mtllib Animals-8-Cat.mtl
usemtl palette

# normals
vn -1 0 0
vn 1 0 0
vn 0 0 1
vn 0 0 -1
vn 0 -1 0
vn 0 1 0

# texcoords
vt 0.939453 0.5
vt 0.970703 0.5
vt 0.974609 0.5
vt 0.978516 0.5
vt 0.982422 0.5
vt 0.986328 0.5

# verts
v -1.3 -1.2 -1.1
v -1.3 -1.2 -1.2
v -1.3 -1.1 -1.1
v -1.3 -1.1 -1.2
v -1.3 -1 -1.1
v -1.3 -1 -1.2
v -1.3 -0.9 -1.1
v -1.3 -0.9 -1.2
v -1.1 -2.2 1
v -1.1 -2.2 0.4
v -1.1 -2.2 -0.6
v -1.1 -2.2 -1.2
v -1.1 -1.9 1
v -1.1 -1.9 0.4
v -1.1 -1.9 -0.6
v -1.1 -1.9 -1.2
v -1.1 -1.7 0.4
v -1.1 -1.7 -0.6
v -1.1 -1.2 -1.1
v -1.1 -1.2 -1.2
v -1.1 -1.1 -1.1
v -1.1 -1.1 -1.2
v -1.1 -1 -1.1
v -1.1 -1 -1.2
v -1.1 -0.9 -1.1
v -1.1 -0.9 -1.2
v -1.1 -0.0999999 1
v -1.1 -0.0999999 -1
v -1.1 0.3 -1
v -1.1 0.3 -1.2
v -1 -0.0999999 -0.9
v -1 -0.0999999 -1
v -1 0.2 -0.9
v -1 0.2 -1
v -0.7 -0.0999999 -1.1
v -0.7 -0.0999999 -1.2
v -0.7 0.2 -1.1
v -0.7 0.2 -1.2
v -0.5 -1.3 -1.2
v -0.5 -1.3 -1.3
v -0.5 -1 -1.2
v -0.5 -1 -1.3
v -0.3 -1 -1.1
v -0.3 -1 -1.2
v -0.3 -0.5 -1.1
v -0.3 -0.5 -1.2
v -0.2 -1.8 1.5
v -0.2 -1.8 1
v -0.2 -1.7 1
v -0.2 -1.4 1.1
v -0.2 -1.4 1
v -0.2 0 1.1
v -0.2 0 0.3
v -0.2 0.4 1.5
v -0.2 0.4 0.3
v 0.1 -1.3 -1.2
v 0.1 -1.3 -1.3
v 0.1 -1.2 -1.2
v 0.1 -1.2 -1.3
v 0.6 -2.2 1
v 0.6 -2.2 0.4
v 0.6 -2.2 -0.6
v 0.6 -2.2 -1.2
v 0.6 -1.9 1
v 0.6 -1.9 0.4
v 0.6 -1.9 -0.6
v 0.6 -1.9 -1.2
v 0.6 -0.0999999 -1
v 0.6 -0.0999999 -1.2
v 0.6 0.3 -1
v 0.6 0.3 -1.2
v 0.7 -0.0999999 -0.9
v 0.7 -0.0999999 -1
v 0.7 0.2 -0.9
v 0.7 0.2 -1
v 0.8 -1 -1.1
v 0.8 -1 -1.2
v 0.8 -0.5 -1.1
v 0.8 -0.5 -1.2
v 1 -0.0999999 -1.1
v 1 -0.0999999 -1.2
v 1 0.2 -1.1
v 1 0.2 -1.2
v -1 -0.0999999 -1.1
v -1 -0.0999999 -1.2
v -1 0.2 -1.1
v -1 0.2 -1.2
v -0.8 -1 -1.1
v -0.8 -1 -1.2
v -0.8 -0.5 -1.1
v -0.8 -0.5 -1.2
v -0.7 -0.0999999 -0.9
v -0.7 -0.0999999 -1
v -0.7 0.2 -0.9
v -0.7 0.2 -1
v -0.6 -2.2 1
v -0.6 -2.2 0.4
v -0.6 -2.2 -0.6
v -0.6 -2.2 -1.2
v -0.6 -1.9 1
v -0.6 -1.9 0.4
v -0.6 -1.9 -0.6
v -0.6 -1.9 -1.2
v -0.6 -0.0999999 -1
v -0.6 -0.0999999 -1.2
v -0.6 0.3 -1
v -0.6 0.3 -1.2
v -0.0999999 -1.3 -1.2
v -0.0999999 -1.3 -1.3
v -0.0999999 -1.2 -1.2
v -0.0999999 -1.2 -1.3
v 0.2 -1.8 1.5
v 0.2 -1.8 1
v 0.2 -1.7 1
v 0.2 -1.4 1.1
v 0.2 -1.4 1
v 0.2 0 1.1
v 0.2 0 0.3
v 0.2 0.4 1.5
v 0.2 0.4 0.3
v 0.3 -1 -1.1
v 0.3 -1 -1.2
v 0.3 -0.5 -1.1
v 0.3 -0.5 -1.2
v 0.5 -1.3 -1.2
v 0.5 -1.3 -1.3
v 0.5 -1 -1.2
v 0.5 -1 -1.3
v 0.7 -0.0999999 -1.1
v 0.7 -0.0999999 -1.2
v 0.7 0.2 -1.1
v 0.7 0.2 -1.2
v 1 -0.0999999 -0.9
v 1 -0.0999999 -1
v 1 0.2 -0.9
v 1 0.2 -1
v 1.1 -2.2 1
v 1.1 -2.2 0.4
v 1.1 -2.2 -0.6
v 1.1 -2.2 -1.2
v 1.1 -1.9 1
v 1.1 -1.9 0.4
v 1.1 -1.9 -0.6
v 1.1 -1.9 -1.2
v 1.1 -1.7 0.4
v 1.1 -1.7 -0.6
v 1.1 -1.2 -1.1
v 1.1 -1.2 -1.2
v 1.1 -1.1 -1.1
v 1.1 -1.1 -1.2
v 1.1 -1 -1.1
v 1.1 -1 -1.2
v 1.1 -0.9 -1.1
v 1.1 -0.9 -1.2
v 1.1 -0.0999999 1
v 1.1 -0.0999999 -1
v 1.1 0.3 -1
v 1.1 0.3 -1.2
v 1.3 -1.2 -1.1
v 1.3 -1.2 -1.2
v 1.3 -1.1 -1.1
v 1.3 -1.1 -1.2
v 1.3 -1 -1.1
v 1.3 -1 -1.2
v 1.3 -0.9 -1.1
v 1.3 -0.9 -1.2
v -0.2 -1.8 1.5
v -0.2 0.4 1.5
v 0.2 -1.8 1.5
v 0.2 0.4 1.5
v -1.1 -2.2 1
v -1.1 -1.9 1
v -1.1 -0.0999999 1
v -0.6 -2.2 1
v -0.6 -1.9 1
v -0.6 -1.7 1
v -0.2 -1.8 1
v -0.2 -1.7 1
v -0.2 -1.4 1
v 0.2 -1.8 1
v 0.2 -1.7 1
v 0.2 -1.4 1
v 0.6 -2.2 1
v 0.6 -1.9 1
v 0.6 -1.7 1
v 1.1 -2.2 1
v 1.1 -1.9 1
v 1.1 -0.0999999 1
v -1.1 -2.2 -0.6
v -1.1 -1.9 -0.6
v -0.6 -2.2 -0.6
v -0.6 -1.9 -0.6
v 0.6 -2.2 -0.6
v 0.6 -1.9 -0.6
v 1.1 -2.2 -0.6
v 1.1 -1.9 -0.6
v -1 -0.0999999 -0.9
v -1 0.2 -0.9
v -0.7 -0.0999999 -0.9
v -0.7 0.2 -0.9
v 0.7 -0.0999999 -0.9
v 0.7 0.2 -0.9
v 1 -0.0999999 -0.9
v 1 0.2 -0.9
v -1.1 -0.0999999 -1
v -1.1 0.3 -1
v -1 -0.0999999 -1
v -1 0.2 -1
v -0.7 -0.0999999 -1
v -0.7 0.2 -1
v -0.6 -0.0999999 -1
v -0.6 0.3 -1
v 0.6 -0.0999999 -1
v 0.6 0.3 -1
v 0.7 -0.0999999 -1
v 0.7 0.2 -1
v 1 -0.0999999 -1
v 1 0.2 -1
v 1.1 -0.0999999 -1
v 1.1 0.3 -1
v -1.3 -1.2 -1.1
v -1.3 -1.1 -1.1
v -1.3 -1 -1.1
v -1.3 -0.9 -1.1
v -1.1 -1.2 -1.1
v -1.1 -1.1 -1.1
v -1.1 -1 -1.1
v -1.1 -0.9 -1.1
v 1.1 -1.2 -1.1
v 1.1 -1.1 -1.1
v 1.1 -1 -1.1
v 1.1 -0.9 -1.1
v 1.3 -1.2 -1.1
v 1.3 -1.1 -1.1
v 1.3 -1 -1.1
v 1.3 -0.9 -1.1
v -0.2 -1.4 1.1
v -0.2 0 1.1
v 0.2 -1.4 1.1
v 0.2 0 1.1
v -1.1 -2.2 0.4
v -1.1 -1.9 0.4
v -0.6 -2.2 0.4
v -0.6 -1.9 0.4
v 0.6 -2.2 0.4
v 0.6 -1.9 0.4
v 1.1 -2.2 0.4
v 1.1 -1.9 0.4
v -0.2 0 0.3
v -0.2 0.4 0.3
v 0.2 0 0.3
v 0.2 0.4 0.3
v -1 -0.0999999 -1.1
v -1 0.2 -1.1
v -0.8 -1 -1.1
v -0.8 -0.5 -1.1
v -0.7 -0.0999999 -1.1
v -0.7 0.2 -1.1
v -0.6 -0.9 -1.1
v -0.6 -0.6 -1.1
v -0.5 -0.9 -1.1
v -0.5 -0.6 -1.1
v -0.3 -1 -1.1
v -0.3 -0.5 -1.1
v 0.3 -1 -1.1
v 0.3 -0.5 -1.1
v 0.5 -0.9 -1.1
v 0.5 -0.6 -1.1
v 0.6 -0.9 -1.1
v 0.6 -0.6 -1.1
v 0.7 -0.0999999 -1.1
v 0.7 0.2 -1.1
v 0.8 -1 -1.1
v 0.8 -0.5 -1.1
v 1 -0.0999999 -1.1
v 1 0.2 -1.1
v -1.3 -1.2 -1.2
v -1.3 -1.1 -1.2
v -1.3 -1 -1.2
v -1.3 -0.9 -1.2
v -1.1 -2.2 -1.2
v -1.1 -1.9 -1.2
v -1.1 -1.2 -1.2
v -1.1 -1.1 -1.2
v -1.1 -1 -1.2
v -1.1 -0.9 -1.2
v -1.1 0.3 -1.2
v -1 -0.0999999 -1.2
v -1 0.2 -1.2
v -0.8 -1 -1.2
v -0.8 -0.5 -1.2
v -0.7 -0.0999999 -1.2
v -0.7 0.2 -1.2
v -0.6 -2.2 -1.2
v -0.6 -1.9 -1.2
v -0.6 -1.7 -1.2
v -0.6 -0.0999999 -1.2
v -0.6 0.3 -1.2
v -0.5 -1.3 -1.2
v -0.5 -1 -1.2
v -0.3 -1 -1.2
v -0.3 -0.5 -1.2
v -0.0999999 -1.3 -1.2
v -0.0999999 -1.2 -1.2
v -0.0999999 -1 -1.2
v 0.1 -1.3 -1.2
v 0.1 -1.2 -1.2
v 0.1 -1 -1.2
v 0.3 -1 -1.2
v 0.3 -0.5 -1.2
v 0.5 -1.3 -1.2
v 0.5 -1 -1.2
v 0.6 -2.2 -1.2
v 0.6 -1.9 -1.2
v 0.6 -1.7 -1.2
v 0.6 -0.0999999 -1.2
v 0.6 0.3 -1.2
v 0.7 -0.0999999 -1.2
v 0.7 0.2 -1.2
v 0.8 -1 -1.2
v 0.8 -0.5 -1.2
v 1 -0.0999999 -1.2
v 1 0.2 -1.2
v 1.1 -2.2 -1.2
v 1.1 -1.9 -1.2
v 1.1 -1.2 -1.2
v 1.1 -1.1 -1.2
v 1.1 -1 -1.2
v 1.1 -0.9 -1.2
v 1.1 0.3 -1.2
v 1.3 -1.2 -1.2
v 1.3 -1.1 -1.2
v 1.3 -1 -1.2
v 1.3 -0.9 -1.2
v -0.5 -1.3 -1.3
v -0.5 -1 -1.3
v -0.0999999 -1.3 -1.3
v -0.0999999 -1.2 -1.3
v -0.0999999 -1.1 -1.3
v -0.0999999 -1 -1.3
v 0.1 -1.3 -1.3
v 0.1 -1.2 -1.3
v 0.1 -1.1 -1.3
v 0.1 -1 -1.3
v 0.5 -1.3 -1.3
v 0.5 -1 -1.3
v -1.1 -2.2 1
v -0.6 -2.2 1
v 0.6 -2.2 1
v 1.1 -2.2 1
v -1.1 -2.2 0.4
v -0.6 -2.2 0.4
v 0.6 -2.2 0.4
v 1.1 -2.2 0.4
v -1.1 -2.2 -0.6
v -0.6 -2.2 -0.6
v 0.6 -2.2 -0.6
v 1.1 -2.2 -0.6
v -1.1 -2.2 -1.2
v -0.6 -2.2 -1.2
v 0.6 -2.2 -1.2
v 1.1 -2.2 -1.2
v -0.6 -1.9 1
v 0.6 -1.9 1
v -1.1 -1.9 0.4
v -0.6 -1.9 0.4
v 0.6 -1.9 0.4
v 1.1 -1.9 0.4
v -1.1 -1.9 -0.6
v -0.6 -1.9 -0.6
v 0.6 -1.9 -0.6
v 1.1 -1.9 -0.6
v -0.6 -1.9 -1.2
v 0.6 -1.9 -1.2
v -0.2 -1.8 1.5
v 0.2 -1.8 1.5
v -0.2 -1.8 1
v 0.2 -1.8 1
v -0.5 -1.3 -1.2
v -0.0999999 -1.3 -1.2
v 0.1 -1.3 -1.2
v 0.5 -1.3 -1.2
v -0.5 -1.3 -1.3
v -0.0999999 -1.3 -1.3
v 0.1 -1.3 -1.3
v 0.5 -1.3 -1.3
v -1.3 -1.2 -1.1
v -1.1 -1.2 -1.1
v 1.1 -1.2 -1.1
v 1.3 -1.2 -1.1
v -1.3 -1.2 -1.2
v -1.1 -1.2 -1.2
v -0.0999999 -1.2 -1.2
v 0.1 -1.2 -1.2
v 1.1 -1.2 -1.2
v 1.3 -1.2 -1.2
v -0.0999999 -1.2 -1.3
v 0.1 -1.2 -1.3
v -1.3 -1 -1.1
v -1.1 -1 -1.1
v 1.1 -1 -1.1
v 1.3 -1 -1.1
v -1.3 -1 -1.2
v -1.1 -1 -1.2
v 1.1 -1 -1.2
v 1.3 -1 -1.2
v -0.8 -0.5 -1.1
v -0.3 -0.5 -1.1
v 0.3 -0.5 -1.1
v 0.8 -0.5 -1.1
v -0.8 -0.5 -1.2
v -0.3 -0.5 -1.2
v 0.3 -0.5 -1.2
v 0.8 -0.5 -1.2
v -0.2 0 1.1
v 0.2 0 1.1
v -0.2 0 0.3
v 0.2 0 0.3
v -1 0.2 -1.1
v -0.7 0.2 -1.1
v 0.7 0.2 -1.1
v 1 0.2 -1.1
v -1 0.2 -1.2
v -0.7 0.2 -1.2
v 0.7 0.2 -1.2
v 1 0.2 -1.2
v -0.2 -1.4 1.1
v 0.2 -1.4 1.1
v -0.2 -1.4 1
v 0.2 -1.4 1
v -1.3 -1.1 -1.1
v -1.1 -1.1 -1.1
v 1.1 -1.1 -1.1
v 1.3 -1.1 -1.1
v -1.3 -1.1 -1.2
v -1.1 -1.1 -1.2
v 1.1 -1.1 -1.2
v 1.3 -1.1 -1.2
v -0.8 -1 -1.1
v -0.3 -1 -1.1
v 0.3 -1 -1.1
v 0.8 -1 -1.1
v -0.8 -1 -1.2
v -0.5 -1 -1.2
v -0.3 -1 -1.2
v -0.0999999 -1 -1.2
v 0.1 -1 -1.2
v 0.3 -1 -1.2
v 0.5 -1 -1.2
v 0.8 -1 -1.2
v -0.5 -1 -1.3
v -0.0999999 -1 -1.3
v 0.1 -1 -1.3
v 0.5 -1 -1.3
v -1.3 -0.9 -1.1
v -1.1 -0.9 -1.1
v 1.1 -0.9 -1.1
v 1.3 -0.9 -1.1
v -1.3 -0.9 -1.2
v -1.1 -0.9 -1.2
v 1.1 -0.9 -1.2
v 1.3 -0.9 -1.2
v -1.1 -0.0999999 1
v 1.1 -0.0999999 1
v -0.8 -0.0999999 0.7
v 0.8 -0.0999999 0.7
v -0.8 -0.0999999 0.5
v 0.8 -0.0999999 0.5
v -0.8 -0.0999999 0.3
v 0.8 -0.0999999 0.3
v -0.8 -0.0999999 0.1
v 0.8 -0.0999999 0.1
v -0.8 -0.0999999 -0.1
v 0.8 -0.0999999 -0.1
v -0.8 -0.0999999 -0.3
v 0.8 -0.0999999 -0.3
v -0.8 -0.0999999 -0.5
v 0.8 -0.0999999 -0.5
v -0.8 -0.0999999 -0.7
v 0.8 -0.0999999 -0.7
v -1 -0.0999999 -0.9
v -0.7 -0.0999999 -0.9
v 0.7 -0.0999999 -0.9
v 1 -0.0999999 -0.9
v -1.1 -0.0999999 -1
v -1 -0.0999999 -1
v -0.7 -0.0999999 -1
v -0.6 -0.0999999 -1
v 0.6 -0.0999999 -1
v 0.7 -0.0999999 -1
v 1 -0.0999999 -1
v 1.1 -0.0999999 -1
v -1 -0.0999999 -1.1
v -0.7 -0.0999999 -1.1
v 0.7 -0.0999999 -1.1
v 1 -0.0999999 -1.1
v -1 -0.0999999 -1.2
v -0.7 -0.0999999 -1.2
v -0.6 -0.0999999 -1.2
v 0.6 -0.0999999 -1.2
v 0.7 -0.0999999 -1.2
v 1 -0.0999999 -1.2
v -1 0.2 -0.9
v -0.7 0.2 -0.9
v 0.7 0.2 -0.9
v 1 0.2 -0.9
v -1 0.2 -1
v -0.7 0.2 -1
v 0.7 0.2 -1
v 1 0.2 -1
v -1.1 0.3 -1
v -0.6 0.3 -1
v 0.6 0.3 -1
v 1.1 0.3 -1
v -1.1 0.3 -1.2
v -0.6 0.3 -1.2
v 0.6 0.3 -1.2
v 1.1 0.3 -1.2
v -0.2 0.4 1.5
v 0.2 0.4 1.5
v -0.2 0.4 0.3
v 0.2 0.4 0.3

# faces
f 3/3/1 2/3/1 1/3/1
f 4/3/1 2/3/1 3/3/1
f 7/3/1 6/3/1 5/3/1
f 8/3/1 6/3/1 7/3/1
f 13/1/1 10/1/1 9/1/1
f 14/1/1 10/1/1 13/1/1
f 15/1/1 12/1/1 11/1/1
f 16/1/1 12/1/1 15/1/1
f 17/2/1 14/2/1 13/2/1
f 17/3/1 15/3/1 14/3/1
f 18/2/1 16/2/1 15/2/1
f 18/3/1 15/3/1 17/3/1
f 19/2/1 18/2/1 17/2/1
f 19/2/1 16/2/1 18/2/1
f 20/2/1 16/2/1 19/2/1
f 21/2/1 19/2/1 17/2/1
f 23/2/1 21/2/1 17/2/1
f 23/2/1 22/2/1 21/2/1
f 24/2/1 22/2/1 23/2/1
f 25/2/1 23/2/1 17/2/1
f 27/2/1 17/2/1 13/2/1
f 27/2/1 26/2/1 25/2/1
f 27/2/1 25/2/1 17/2/1
f 28/2/1 26/2/1 27/2/1
f 29/2/1 26/2/1 28/2/1
f 30/2/1 26/2/1 29/2/1
f 33/2/1 32/2/1 31/2/1
f 34/2/1 32/2/1 33/2/1
f 37/2/1 36/2/1 35/2/1
f 38/2/1 36/2/1 37/2/1
f 41/3/1 40/3/1 39/3/1
f 42/3/1 40/3/1 41/3/1
f 45/2/1 44/2/1 43/2/1
f 46/2/1 44/2/1 45/2/1
f 49/1/1 48/1/1 47/1/1
f 50/1/1 49/1/1 47/1/1
f 51/1/1 49/1/1 50/1/1
f 52/1/1 50/1/1 47/1/1
f 54/1/1 52/1/1 47/1/1
f 54/1/1 53/1/1 52/1/1
f 55/1/1 53/1/1 54/1/1
f 58/3/1 57/3/1 56/3/1
f 59/3/1 57/3/1 58/3/1
f 64/1/1 61/1/1 60/1/1
f 65/1/1 61/1/1 64/1/1
f 66/1/1 63/1/1 62/1/1
f 67/1/1 63/1/1 66/1/1
f 70/2/1 69/2/1 68/2/1
f 71/2/1 69/2/1 70/2/1
f 74/2/1 73/2/1 72/2/1
f 75/2/1 73/2/1 74/2/1
f 78/2/1 77/2/1 76/2/1
f 79/2/1 77/2/1 78/2/1
f 82/2/1 81/2/1 80/2/1
f 83/2/1 81/2/1 82/2/1
f 84/2/2 85/2/2 86/2/2
f 86/2/2 85/2/2 87/2/2
f 88/2/2 89/2/2 90/2/2
f 90/2/2 89/2/2 91/2/2
f 92/2/2 93/2/2 94/2/2
f 94/2/2 93/2/2 95/2/2
f 96/1/2 97/1/2 100/1/2
f 100/1/2 97/1/2 101/1/2
f 98/1/2 99/1/2 102/1/2
f 102/1/2 99/1/2 103/1/2
f 104/2/2 105/2/2 106/2/2
f 106/2/2 105/2/2 107/2/2
f 108/3/2 109/3/2 110/3/2
f 110/3/2 109/3/2 111/3/2
f 112/1/2 113/1/2 114/1/2
f 112/1/2 114/1/2 115/1/2
f 115/1/2 114/1/2 116/1/2
f 112/1/2 115/1/2 117/1/2
f 112/1/2 117/1/2 119/1/2
f 117/1/2 118/1/2 119/1/2
f 119/1/2 118/1/2 120/1/2
f 121/2/2 122/2/2 123/2/2
f 123/2/2 122/2/2 124/2/2
f 125/3/2 126/3/2 127/3/2
f 127/3/2 126/3/2 128/3/2
f 129/2/2 130/2/2 131/2/2
f 131/2/2 130/2/2 132/2/2
f 133/2/2 134/2/2 135/2/2
f 135/2/2 134/2/2 136/2/2
f 137/1/2 138/1/2 141/1/2
f 141/1/2 138/1/2 142/1/2
f 139/1/2 140/1/2 143/1/2
f 143/1/2 140/1/2 144/1/2
f 141/2/2 142/2/2 145/2/2
f 142/3/2 143/3/2 145/3/2
f 143/2/2 144/2/2 146/2/2
f 145/3/2 143/3/2 146/3/2
f 145/2/2 146/2/2 147/2/2
f 146/2/2 144/2/2 147/2/2
f 147/2/2 144/2/2 148/2/2
f 145/2/2 147/2/2 149/2/2
f 145/2/2 149/2/2 151/2/2
f 149/2/2 150/2/2 151/2/2
f 151/2/2 150/2/2 152/2/2
f 145/2/2 151/2/2 153/2/2
f 141/2/2 145/2/2 155/2/2
f 153/2/2 154/2/2 155/2/2
f 145/2/2 153/2/2 155/2/2
f 155/2/2 154/2/2 156/2/2
f 156/2/2 154/2/2 157/2/2
f 157/2/2 154/2/2 158/2/2
f 159/3/2 160/3/2 161/3/2
f 161/3/2 160/3/2 162/3/2
f 163/3/2 164/3/2 165/3/2
f 165/3/2 164/3/2 166/3/2
f 169/1/3 168/1/3 167/1/3
f 170/1/3 168/1/3 169/1/3
f 174/1/3 172/1/3 171/1/3
f 175/2/3 173/2/3 172/2/3
f 175/1/3 172/1/3 174/1/3
f 176/2/3 173/2/3 175/2/3
f 177/3/3 176/3/3 175/3/3
f 178/2/3 173/2/3 176/2/3
f 178/3/3 176/3/3 177/3/3
f 179/2/3 173/2/3 178/2/3
f 180/3/3 177/3/3 175/3/3
f 182/2/3 173/2/3 179/2/3
f 184/3/3 181/3/3 180/3/3
f 184/3/3 180/3/3 175/3/3
f 185/2/3 182/2/3 181/2/3
f 185/3/3 181/3/3 184/3/3
f 186/1/3 184/1/3 183/1/3
f 187/2/3 185/2/3 184/2/3
f 187/1/3 184/1/3 186/1/3
f 188/2/3 182/2/3 185/2/3
f 188/2/3 185/2/3 187/2/3
f 188/2/3 173/2/3 182/2/3
f 191/1/3 190/1/3 189/1/3
f 192/1/3 190/1/3 191/1/3
f 195/1/3 194/1/3 193/1/3
f 196/1/3 194/1/3 195/1/3
f 199/2/3 198/2/3 197/2/3
f 200/2/3 198/2/3 199/2/3
f 203/2/3 202/2/3 201/2/3
f 204/2/3 202/2/3 203/2/3
f 207/2/3 206/2/3 205/2/3
f 208/2/3 206/2/3 207/2/3
f 210/2/3 206/2/3 208/2/3
f 211/2/3 210/2/3 209/2/3
f 212/2/3 206/2/3 210/2/3
f 212/2/3 210/2/3 211/2/3
f 215/2/3 214/2/3 213/2/3
f 216/2/3 214/2/3 215/2/3
f 218/2/3 214/2/3 216/2/3
f 219/2/3 218/2/3 217/2/3
f 220/2/3 214/2/3 218/2/3
f 220/2/3 218/2/3 219/2/3
f 225/3/3 222/3/3 221/3/3
f 226/3/3 222/3/3 225/3/3
f 227/3/3 224/3/3 223/3/3
f 228/3/3 224/3/3 227/3/3
f 233/3/3 230/3/3 229/3/3
f 234/3/3 230/3/3 233/3/3
f 235/3/3 232/3/3 231/3/3
f 236/3/3 232/3/3 235/3/3
f 237/1/4 238/1/4 239/1/4
f 239/1/4 238/1/4 240/1/4
f 241/1/4 242/1/4 243/1/4
f 243/1/4 242/1/4 244/1/4
f 245/1/4 246/1/4 247/1/4
f 247/1/4 246/1/4 248/1/4
f 249/1/4 250/1/4 251/1/4
f 251/1/4 250/1/4 252/1/4
f 253/1/4 254/1/4 257/1/4
f 257/1/4 254/1/4 258/1/4
f 255/5/4 256/5/4 259/5/4
f 259/5/4 256/5/4 260/5/4
f 255/5/4 259/5/4 261/5/4
f 259/4/4 260/4/4 261/4/4
f 260/5/4 256/5/4 262/5/4
f 261/4/4 260/4/4 262/4/4
f 255/5/4 261/5/4 263/5/4
f 261/5/4 262/5/4 263/5/4
f 262/5/4 256/5/4 264/5/4
f 263/5/4 262/5/4 264/5/4
f 265/5/4 266/5/4 267/5/4
f 267/5/4 266/5/4 268/5/4
f 265/5/4 267/5/4 269/5/4
f 267/4/4 268/4/4 269/4/4
f 268/5/4 266/5/4 270/5/4
f 269/4/4 268/4/4 270/4/4
f 265/5/4 269/5/4 273/5/4
f 269/5/4 270/5/4 273/5/4
f 270/5/4 266/5/4 274/5/4
f 273/5/4 270/5/4 274/5/4
f 271/1/4 272/1/4 275/1/4
f 275/1/4 272/1/4 276/1/4
f 277/3/4 278/3/4 283/3/4
f 283/3/4 278/3/4 284/3/4
f 279/3/4 280/3/4 285/3/4
f 285/3/4 280/3/4 286/3/4
f 283/2/4 284/2/4 288/2/4
f 286/2/4 287/2/4 288/2/4
f 285/2/4 286/2/4 288/2/4
f 284/2/4 285/2/4 288/2/4
f 282/2/4 283/2/4 288/2/4
f 288/2/4 287/2/4 289/2/4
f 282/2/4 288/2/4 290/2/4
f 290/2/4 288/2/4 291/2/4
f 291/2/4 288/2/4 292/2/4
f 289/2/4 287/2/4 293/2/4
f 281/1/4 282/1/4 294/1/4
f 282/2/4 290/2/4 295/2/4
f 294/1/4 282/1/4 295/1/4
f 295/2/4 290/2/4 296/2/4
f 292/2/4 293/2/4 297/2/4
f 291/2/4 292/2/4 297/2/4
f 293/2/4 287/2/4 298/2/4
f 297/2/4 293/2/4 298/2/4
f 296/2/4 290/2/4 299/2/4
f 299/2/4 290/2/4 300/2/4
f 291/2/4 297/2/4 302/2/4
f 296/2/4 299/2/4 303/2/4
f 301/2/4 302/2/4 305/2/4
f 303/2/4 304/2/4 306/2/4
f 296/2/4 303/2/4 306/2/4
f 306/2/4 304/2/4 307/2/4
f 305/2/4 302/2/4 308/2/4
f 308/2/4 302/2/4 309/2/4
f 302/2/4 297/2/4 310/2/4
f 309/2/4 302/2/4 310/2/4
f 296/2/4 306/2/4 311/2/4
f 295/3/4 296/3/4 314/3/4
f 311/2/4 312/2/4 315/2/4
f 296/2/4 311/2/4 315/2/4
f 314/3/4 296/3/4 315/3/4
f 310/2/4 297/2/4 316/2/4
f 310/2/4 316/2/4 318/2/4
f 316/2/4 317/2/4 318/2/4
f 318/2/4 317/2/4 319/2/4
f 315/2/4 312/2/4 320/2/4
f 314/2/4 315/2/4 320/2/4
f 310/2/4 318/2/4 321/2/4
f 321/2/4 318/2/4 322/2/4
f 320/2/4 321/2/4 322/2/4
f 319/2/4 317/2/4 323/2/4
f 313/1/4 314/1/4 324/1/4
f 322/2/4 323/2/4 325/2/4
f 324/1/4 314/1/4 325/1/4
f 320/2/4 322/2/4 325/2/4
f 314/2/4 320/2/4 325/2/4
f 325/2/4 323/2/4 326/2/4
f 326/2/4 323/2/4 327/2/4
f 327/2/4 323/2/4 328/2/4
f 328/2/4 323/2/4 329/2/4
f 323/2/4 317/2/4 330/2/4
f 329/2/4 323/2/4 330/2/4
f 326/3/4 327/3/4 331/3/4
f 331/3/4 327/3/4 332/3/4
f 328/3/4 329/3/4 333/3/4
f 333/3/4 329/3/4 334/3/4
f 335/3/4 336/3/4 337/3/4
f 337/3/4 336/3/4 338/3/4
f 338/3/4 336/3/4 339/3/4
f 339/3/4 336/3/4 340/3/4
f 338/3/4 339/3/4 342/3/4
f 339/6/4 340/6/4 343/6/4
f 342/3/4 339/3/4 343/3/4
f 343/6/4 340/6/4 344/6/4
f 341/3/4 342/3/4 345/3/4
f 342/3/4 343/3/4 345/3/4
f 343/3/4 344/3/4 345/3/4
f 345/3/4 344/3/4 346/3/4
f 351/1/5 348/1/5 347/1/5
f 352/1/5 348/1/5 351/1/5
f 353/1/5 350/1/5 349/1/5
f 354/1/5 350/1/5 353/1/5
f 359/1/5 356/1/5 355/1/5
f 360/1/5 356/1/5 359/1/5
f 361/1/5 358/1/5 357/1/5
f 362/1/5 358/1/5 361/1/5
f 366/3/5 364/3/5 363/3/5
f 367/3/5 364/3/5 366/3/5
f 369/3/5 366/3/5 365/3/5
f 369/3/5 368/3/5 367/3/5
f 369/3/5 367/3/5 366/3/5
f 370/3/5 368/3/5 369/3/5
f 371/3/5 368/3/5 370/3/5
f 372/3/5 368/3/5 371/3/5
f 373/3/5 371/3/5 370/3/5
f 374/3/5 371/3/5 373/3/5
f 377/1/5 376/1/5 375/1/5
f 378/1/5 376/1/5 377/1/5
f 383/3/5 380/3/5 379/3/5
f 384/3/5 380/3/5 383/3/5
f 385/3/5 382/3/5 381/3/5
f 386/3/5 382/3/5 385/3/5
f 391/3/5 388/3/5 387/3/5
f 392/3/5 388/3/5 391/3/5
f 395/3/5 390/3/5 389/3/5
f 396/3/5 390/3/5 395/3/5
f 397/3/5 394/3/5 393/3/5
f 398/3/5 394/3/5 397/3/5
f 403/3/5 400/3/5 399/3/5
f 404/3/5 400/3/5 403/3/5
f 405/3/5 402/3/5 401/3/5
f 406/3/5 402/3/5 405/3/5
f 411/2/5 408/2/5 407/2/5
f 412/2/5 408/2/5 411/2/5
f 413/2/5 410/2/5 409/2/5
f 414/2/5 410/2/5 413/2/5
f 417/1/5 416/1/5 415/1/5
f 418/1/5 416/1/5 417/1/5
f 423/2/5 420/2/5 419/2/5
f 424/2/5 420/2/5 423/2/5
f 425/2/5 422/2/5 421/2/5
f 426/2/5 422/2/5 425/2/5
f 427/1/6 428/1/6 429/1/6
f 429/1/6 428/1/6 430/1/6
f 431/3/6 432/3/6 435/3/6
f 435/3/6 432/3/6 436/3/6
f 433/3/6 434/3/6 437/3/6
f 437/3/6 434/3/6 438/3/6
f 439/2/6 440/2/6 443/2/6
f 443/2/6 440/2/6 444/2/6
f 444/2/6 440/2/6 445/2/6
f 441/2/6 442/2/6 448/2/6
f 448/2/6 442/2/6 449/2/6
f 449/2/6 442/2/6 450/2/6
f 444/3/6 445/3/6 451/3/6
f 445/3/6 446/3/6 451/3/6
f 446/6/6 447/6/6 452/6/6
f 451/3/6 446/3/6 452/3/6
f 448/3/6 449/3/6 453/3/6
f 452/6/6 447/6/6 453/6/6
f 447/3/6 448/3/6 453/3/6
f 453/3/6 449/3/6 454/3/6
f 455/3/6 456/3/6 459/3/6
f 459/3/6 456/3/6 460/3/6
f 457/3/6 458/3/6 461/3/6
f 461/3/6 458/3/6 462/3/6
f 463/2/6 464/2/6 465/2/6
f 465/2/6 464/2/6 466/2/6
f 463/2/6 465/2/6 467/2/6
f 465/1/6 466/1/6 467/1/6
f 466/2/6 464/2/6 468/2/6
f 467/1/6 466/1/6 468/1/6
f 463/2/6 467/2/6 469/2/6
f 467/2/6 468/2/6 469/2/6
f 468/2/6 464/2/6 470/2/6
f 469/2/6 468/2/6 470/2/6
f 463/2/6 469/2/6 471/2/6
f 469/1/6 470/1/6 471/1/6
f 470/2/6 464/2/6 472/2/6
f 471/1/6 470/1/6 472/1/6
f 463/2/6 471/2/6 473/2/6
f 471/2/6 472/2/6 473/2/6
f 472/2/6 464/2/6 474/2/6
f 473/2/6 472/2/6 474/2/6
f 463/2/6 473/2/6 475/2/6
f 473/1/6 474/1/6 475/1/6
f 474/2/6 464/2/6 476/2/6
f 475/1/6 474/1/6 476/1/6
f 463/2/6 475/2/6 477/2/6
f 475/2/6 476/2/6 477/2/6
f 476/2/6 464/2/6 478/2/6
f 477/2/6 476/2/6 478/2/6
f 463/2/6 477/2/6 479/2/6
f 477/1/6 478/1/6 479/1/6
f 478/2/6 464/2/6 480/2/6
f 479/1/6 478/1/6 480/1/6
f 463/2/6 479/2/6 481/2/6
f 479/2/6 480/2/6 481/2/6
f 481/2/6 480/2/6 482/2/6
f 482/2/6 480/2/6 483/2/6
f 480/2/6 464/2/6 484/2/6
f 483/2/6 480/2/6 484/2/6
f 463/2/6 481/2/6 485/2/6
f 485/2/6 481/2/6 486/2/6
f 482/2/6 483/2/6 487/2/6
f 487/2/6 483/2/6 488/2/6
f 488/2/6 483/2/6 489/2/6
f 489/2/6 483/2/6 490/2/6
f 484/2/6 464/2/6 491/2/6
f 491/2/6 464/2/6 492/2/6
f 493/2/6 494/2/6 497/2/6
f 497/2/6 494/2/6 498/2/6
f 488/2/6 489/2/6 499/2/6
f 499/2/6 489/2/6 500/2/6
f 495/2/6 496/2/6 501/2/6
f 501/2/6 496/2/6 502/2/6
f 503/2/6 504/2/6 507/2/6
f 507/2/6 504/2/6 508/2/6
f 505/2/6 506/2/6 509/2/6
f 509/2/6 506/2/6 510/2/6
f 511/2/6 512/2/6 515/2/6
f 515/2/6 512/2/6 516/2/6
f 513/2/6 514/2/6 517/2/6
f 517/2/6 514/2/6 518/2/6
f 519/1/6 520/1/6 521/1/6
f 521/1/6 520/1/6 522/1/6
