# MagicaVoxel @ Ephtracy

# group
o 

# material
mtllib Animals-4.mtl
usemtl palette

# normals
vn -1 0 0
vn 1 0 0
vn 0 0 1
vn 0 0 -1
vn 0 -1 0
vn 0 1 0

# texcoords
vt 0.943359 0.5
vt 0.974609 0.5
vt 0.978516 0.5
vt 0.982422 0.5
vt 0.986328 0.5
vt 0.990234 0.5

# verts
v -1.1 -2.2 1
v -1.1 -2.2 0.4
v -1.1 -2.2 -0.6
v -1.1 -2.2 -1.2
v -1.1 -1.9 1
v -1.1 -1.9 0.4
v -1.1 -1.9 -0.6
v -1.1 -1.9 -1.2
v -1.1 -1.7 0.4
v -1.1 -1.7 -0.6
v -1.1 -0.0999999 1
v -1.1 -0.0999999 -1
v -1.1 -0.0999999 -1.1
v -1.1 -0.0999999 -1.2
v -1.1 0.3 -1
v -1.1 0.3 -1.1
v -1.1 0.3 -1.2
v -1 -0.0999999 -0.9
v -1 -0.0999999 -1
v -1 0.2 -0.9
v -1 0.2 -1
v -0.7 -0.0999999 -1.1
v -0.7 -0.0999999 -1.2
v -0.7 0.2 -1.1
v -0.7 0.2 -1.2
v -0.3 -1.6 1.3
v -0.3 -1.6 1
v -0.3 -1.4 1.1
v -0.3 -1.4 1
v -0.3 -1.4 -1.2
v -0.3 -1.4 -1.5
v -0.3 -1.1 -1.2
v -0.3 -1.1 -1.5
v -0.3 -1 -1
v -0.3 -1 -1.1
v -0.3 -1 -1.2
v -0.3 -1 -1.5
v -0.3 -0.5 -1
v -0.3 -0.5 -1.1
v -0.3 -0.5 -1.2
v -0.3 0 1.1
v -0.3 0 0.3
v -0.3 0.2 1.3
v -0.3 0.2 0.5
v -0.3 0.4 0.5
v -0.3 0.4 0.3
v -0.2 -1.8 1.4
v -0.2 -1.8 1
v -0.2 -1.6 1.3
v -0.2 -1.6 1
v -0.2 0.2 1.3
v -0.2 0.2 0.5
v -0.2 0.3 1.4
v -0.2 0.3 0.6
v -0.2 0.4 0.5
v -0.2 0.4 0.3
v -0.2 0.5 0.6
v -0.2 0.5 0.5
v -0.2 0.5 0.3
v -0.1 -1.8 1.5
v -0.1 -1.8 1.4
v -0.1 0.3 1.4
v -0.1 0.3 0.6
v -0.1 0.4 1.5
v -0.1 0.4 0.7
v -0.1 0.5 0.7
v -0.1 0.5 0.6
v -0.1 0.5 0.5
v -0.1 0.5 0.3
v -0.1 0.6 0.6
v -0.1 0.6 0.5
v -0.1 0.6 0.3
v 0.6 -2.2 1
v 0.6 -2.2 0.4
v 0.6 -2.2 -0.6
v 0.6 -2.2 -1.2
v 0.6 -1.9 1
v 0.6 -1.9 0.4
v 0.6 -1.9 -0.6
v 0.6 -1.9 -1.2
v 0.6 -0.0999999 -1
v 0.6 -0.0999999 -1.1
v 0.6 -0.0999999 -1.2
v 0.6 0.3 -1
v 0.6 0.3 -1.1
v 0.6 0.3 -1.2
v 0.7 -0.0999999 -0.9
v 0.7 -0.0999999 -1
v 0.7 0.2 -0.9
v 0.7 0.2 -1
v 0.8 -1 -1
v 0.8 -1 -1.1
v 0.8 -1 -1.2
v 0.8 -0.5 -1
v 0.8 -0.5 -1.1
v 0.8 -0.5 -1.2
v 1 -0.0999999 -1.1
v 1 -0.0999999 -1.2
v 1 0.2 -1.1
v 1 0.2 -1.2
v -1 -0.0999999 -1.1
v -1 -0.0999999 -1.2
v -1 0.2 -1.1
v -1 0.2 -1.2
v -0.8 -1 -1
v -0.8 -1 -1.1
v -0.8 -1 -1.2
v -0.8 -0.5 -1
v -0.8 -0.5 -1.1
v -0.8 -0.5 -1.2
v -0.7 -0.0999999 -0.9
v -0.7 -0.0999999 -1
v -0.7 0.2 -0.9
v -0.7 0.2 -1
v -0.6 -2.2 1
v -0.6 -2.2 0.4
v -0.6 -2.2 -0.6
v -0.6 -2.2 -1.2
v -0.6 -1.9 1
v -0.6 -1.9 0.4
v -0.6 -1.9 -0.6
v -0.6 -1.9 -1.2
v -0.6 -0.0999999 -1
v -0.6 -0.0999999 -1.1
v -0.6 -0.0999999 -1.2
v -0.6 0.3 -1
v -0.6 0.3 -1.1
v -0.6 0.3 -1.2
v 0.1 -1.8 1.5
v 0.1 -1.8 1.4
v 0.1 0.3 1.4
v 0.1 0.3 0.6
v 0.1 0.4 1.5
v 0.1 0.4 0.7
v 0.1 0.5 0.7
v 0.1 0.5 0.6
v 0.1 0.5 0.5
v 0.1 0.5 0.3
v 0.1 0.6 0.6
v 0.1 0.6 0.5
v 0.1 0.6 0.3
v 0.2 -1.8 1.4
v 0.2 -1.8 1
v 0.2 -1.6 1.3
v 0.2 -1.6 1
v 0.2 0.2 1.3
v 0.2 0.2 0.5
v 0.2 0.3 1.4
v 0.2 0.3 0.6
v 0.2 0.4 0.5
v 0.2 0.4 0.3
v 0.2 0.5 0.6
v 0.2 0.5 0.5
v 0.2 0.5 0.3
v 0.3 -1.6 1.3
v 0.3 -1.6 1
v 0.3 -1.4 1.1
v 0.3 -1.4 1
v 0.3 -1.4 -1.2
v 0.3 -1.4 -1.5
v 0.3 -1.1 -1.2
v 0.3 -1.1 -1.5
v 0.3 -1 -1
v 0.3 -1 -1.1
v 0.3 -1 -1.2
v 0.3 -1 -1.5
v 0.3 -0.5 -1
v 0.3 -0.5 -1.1
v 0.3 -0.5 -1.2
v 0.3 0 1.1
v 0.3 0 0.3
v 0.3 0.2 1.3
v 0.3 0.2 0.5
v 0.3 0.4 0.5
v 0.3 0.4 0.3
v 0.7 -0.0999999 -1.1
v 0.7 -0.0999999 -1.2
v 0.7 0.2 -1.1
v 0.7 0.2 -1.2
v 1 -0.0999999 -0.9
v 1 -0.0999999 -1
v 1 0.2 -0.9
v 1 0.2 -1
v 1.1 -2.2 1
v 1.1 -2.2 0.4
v 1.1 -2.2 -0.6
v 1.1 -2.2 -1.2
v 1.1 -1.9 1
v 1.1 -1.9 0.4
v 1.1 -1.9 -0.6
v 1.1 -1.9 -1.2
v 1.1 -1.7 0.4
v 1.1 -1.7 -0.6
v 1.1 -0.0999999 1
v 1.1 -0.0999999 -1
v 1.1 -0.0999999 -1.1
v 1.1 -0.0999999 -1.2
v 1.1 0.3 -1
v 1.1 0.3 -1.1
v 1.1 0.3 -1.2
v -0.1 -1.8 1.5
v -0.1 0.4 1.5
v 0.1 -1.8 1.5
v 0.1 0.4 1.5
v -0.2 -1.8 1.4
v -0.2 0.3 1.4
v -0.1 -1.8 1.4
v -0.1 0.3 1.4
v 0.1 -1.8 1.4
v 0.1 0.3 1.4
v 0.2 -1.8 1.4
v 0.2 0.3 1.4
v -0.3 -1.6 1.3
v -0.3 0.2 1.3
v -0.2 -1.6 1.3
v -0.2 0.2 1.3
v 0.2 -1.6 1.3
v 0.2 0.2 1.3
v 0.3 -1.6 1.3
v 0.3 0.2 1.3
v -1.1 -2.2 1
v -1.1 -1.9 1
v -1.1 -0.0999999 1
v -0.6 -2.2 1
v -0.6 -1.9 1
v -0.6 -1.7 1
v -0.5 -1.7 1
v -0.5 -1.6 1
v -0.3 -1.6 1
v -0.3 -1.4 1
v -0.2 -1.8 1
v -0.2 -1.6 1
v 0.2 -1.8 1
v 0.2 -1.6 1
v 0.3 -1.6 1
v 0.3 -1.4 1
v 0.5 -1.7 1
v 0.5 -1.6 1
v 0.6 -2.2 1
v 0.6 -1.9 1
v 0.6 -1.7 1
v 1.1 -2.2 1
v 1.1 -1.9 1
v 1.1 -0.0999999 1
v -0.1 0.4 0.7
v -0.1 0.5 0.7
v 0.1 0.4 0.7
v 0.1 0.5 0.7
v -0.2 0.3 0.6
v -0.2 0.5 0.6
v -0.1 0.3 0.6
v -0.1 0.5 0.6
v -0.1 0.6 0.6
v 0.1 0.3 0.6
v 0.1 0.5 0.6
v 0.1 0.6 0.6
v 0.2 0.3 0.6
v 0.2 0.5 0.6
v -0.3 0.2 0.5
v -0.3 0.4 0.5
v -0.2 0.2 0.5
v -0.2 0.4 0.5
v 0.2 0.2 0.5
v 0.2 0.4 0.5
v 0.3 0.2 0.5
v 0.3 0.4 0.5
v -1.1 -2.2 -0.6
v -1.1 -1.9 -0.6
v -0.6 -2.2 -0.6
v -0.6 -1.9 -0.6
v 0.6 -2.2 -0.6
v 0.6 -1.9 -0.6
v 1.1 -2.2 -0.6
v 1.1 -1.9 -0.6
v -1 -0.0999999 -0.9
v -1 0.2 -0.9
v -0.7 -0.0999999 -0.9
v -0.7 0.2 -0.9
v 0.7 -0.0999999 -0.9
v 0.7 0.2 -0.9
v 1 -0.0999999 -0.9
v 1 0.2 -0.9
v -1.1 -0.0999999 -1
v -1.1 0.3 -1
v -1 -0.0999999 -1
v -1 0.2 -1
v -0.7 -0.0999999 -1
v -0.7 0.2 -1
v -0.6 -0.0999999 -1
v -0.6 0.3 -1
v 0.6 -0.0999999 -1
v 0.6 0.3 -1
v 0.7 -0.0999999 -1
v 0.7 0.2 -1
v 1 -0.0999999 -1
v 1 0.2 -1
v 1.1 -0.0999999 -1
v 1.1 0.3 -1
v -0.3 -1.4 1.1
v -0.3 0 1.1
v 0.3 -1.4 1.1
v 0.3 0 1.1
v -1.1 -2.2 0.4
v -1.1 -1.9 0.4
v -0.6 -2.2 0.4
v -0.6 -1.9 0.4
v 0.6 -2.2 0.4
v 0.6 -1.9 0.4
v 1.1 -2.2 0.4
v 1.1 -1.9 0.4
v -0.3 0 0.3
v -0.3 0.4 0.3
v -0.2 0.4 0.3
v -0.2 0.5 0.3
v -0.1 0.5 0.3
v -0.1 0.6 0.3
v 0.1 0.5 0.3
v 0.1 0.6 0.3
v 0.2 0.4 0.3
v 0.2 0.5 0.3
v 0.3 0 0.3
v 0.3 0.4 0.3
v -0.8 -1 -1
v -0.8 -0.5 -1
v -0.6 -0.9 -1
v -0.6 -0.6 -1
v -0.5 -0.9 -1
v -0.5 -0.6 -1
v -0.3 -1 -1
v -0.3 -0.5 -1
v 0.3 -1 -1
v 0.3 -0.5 -1
v 0.5 -0.9 -1
v 0.5 -0.6 -1
v 0.6 -0.9 -1
v 0.6 -0.6 -1
v 0.8 -1 -1
v 0.8 -0.5 -1
v -1 -0.0999999 -1.1
v -1 0.2 -1.1
v -0.7 -0.0999999 -1.1
v -0.7 0.2 -1.1
v 0.7 -0.0999999 -1.1
v 0.7 0.2 -1.1
v 1 -0.0999999 -1.1
v 1 0.2 -1.1
v -1.1 -2.2 -1.2
v -1.1 -1.9 -1.2
v -1.1 -0.0999999 -1.2
v -1.1 0.3 -1.2
v -1 -0.0999999 -1.2
v -1 0.2 -1.2
v -0.8 -1 -1.2
v -0.8 -0.5 -1.2
v -0.7 -0.0999999 -1.2
v -0.7 0.2 -1.2
v -0.6 -2.2 -1.2
v -0.6 -1.9 -1.2
v -0.6 -1.7 -1.2
v -0.6 -0.0999999 -1.2
v -0.6 0.3 -1.2
v -0.5 -1.7 -1.2
v -0.5 -1.6 -1.2
v -0.4 -1.6 -1.2
v -0.4 -1.1 -1.2
v -0.3 -1.4 -1.2
v -0.3 -1.1 -1.2
v -0.3 -1 -1.2
v -0.3 -0.5 -1.2
v 0.3 -1.4 -1.2
v 0.3 -1.1 -1.2
v 0.3 -1 -1.2
v 0.3 -0.5 -1.2
v 0.4 -1.6 -1.2
v 0.4 -1.1 -1.2
v 0.5 -1.7 -1.2
v 0.5 -1.6 -1.2
v 0.6 -2.2 -1.2
v 0.6 -1.9 -1.2
v 0.6 -1.7 -1.2
v 0.6 -0.0999999 -1.2
v 0.6 0.3 -1.2
v 0.7 -0.0999999 -1.2
v 0.7 0.2 -1.2
v 0.8 -1 -1.2
v 0.8 -0.5 -1.2
v 1 -0.0999999 -1.2
v 1 0.2 -1.2
v 1.1 -2.2 -1.2
v 1.1 -1.9 -1.2
v 1.1 -0.0999999 -1.2
v 1.1 0.3 -1.2
v -0.3 -1.4 -1.5
v -0.3 -1.1 -1.5
v -0.3 -1 -1.5
v -0.1 -1.4 -1.5
v -0.1 -1.3 -1.5
v -0.1 -1.1 -1.5
v -0.1 -1 -1.5
v 0.1 -1.4 -1.5
v 0.1 -1.3 -1.5
v 0.1 -1.1 -1.5
v 0.1 -1 -1.5
v 0.3 -1.4 -1.5
v 0.3 -1.1 -1.5
v 0.3 -1 -1.5
v -1.1 -2.2 1
v -0.6 -2.2 1
v 0.6 -2.2 1
v 1.1 -2.2 1
v -1.1 -2.2 0.4
v -0.6 -2.2 0.4
v 0.6 -2.2 0.4
v 1.1 -2.2 0.4
v -1.1 -2.2 -0.6
v -0.6 -2.2 -0.6
v 0.6 -2.2 -0.6
v 1.1 -2.2 -0.6
v -1.1 -2.2 -1.2
v -0.6 -2.2 -1.2
v 0.6 -2.2 -1.2
v 1.1 -2.2 -1.2
v -0.6 -1.9 1
v 0.6 -1.9 1
v -1.1 -1.9 0.4
v -0.6 -1.9 0.4
v 0.6 -1.9 0.4
v 1.1 -1.9 0.4
v -1.1 -1.9 -0.6
v -0.6 -1.9 -0.6
v 0.6 -1.9 -0.6
v 1.1 -1.9 -0.6
v -0.6 -1.9 -1.2
v 0.6 -1.9 -1.2
v -0.1 -1.8 1.5
v 0.1 -1.8 1.5
v -0.2 -1.8 1.4
v -0.1 -1.8 1.4
v 0.1 -1.8 1.4
v 0.2 -1.8 1.4
v -0.2 -1.8 1
v 0.2 -1.8 1
v -0.3 -1.6 1.3
v -0.2 -1.6 1.3
v 0.2 -1.6 1.3
v 0.3 -1.6 1.3
v -0.3 -1.6 1
v -0.2 -1.6 1
v 0.2 -1.6 1
v 0.3 -1.6 1
v -0.3 -1.4 -1.2
v 0.3 -1.4 -1.2
v -0.1 -1.4 -1.4
v 0.1 -1.4 -1.4
v -0.3 -1.4 -1.5
v -0.1 -1.4 -1.5
v 0.1 -1.4 -1.5
v 0.3 -1.4 -1.5
v -0.8 -0.5 -1
v -0.3 -0.5 -1
v 0.3 -0.5 -1
v 0.8 -0.5 -1
v -0.8 -0.5 -1.1
v -0.3 -0.5 -1.1
v 0.3 -0.5 -1.1
v 0.8 -0.5 -1.1
v -0.8 -0.5 -1.2
v -0.3 -0.5 -1.2
v 0.3 -0.5 -1.2
v 0.8 -0.5 -1.2
v -0.3 0 1.1
v 0.3 0 1.1
v -0.3 0 0.3
v 0.3 0 0.3
v -1 0.2 -1.1
v -0.7 0.2 -1.1
v 0.7 0.2 -1.1
v 1 0.2 -1.1
v -1 0.2 -1.2
v -0.7 0.2 -1.2
v 0.7 0.2 -1.2
v 1 0.2 -1.2
v -0.3 -1.4 1.1
v 0.3 -1.4 1.1
v -0.3 -1.4 1
v 0.3 -1.4 1
v -0.8 -1 -1
v -0.3 -1 -1
v 0.3 -1 -1
v 0.8 -1 -1
v -0.8 -1 -1.1
v -0.3 -1 -1.1
v 0.3 -1 -1.1
v 0.8 -1 -1.1
v -0.8 -1 -1.2
v -0.3 -1 -1.2
v 0.3 -1 -1.2
v 0.8 -1 -1.2
v -0.1 -1 -1.3
v 0.1 -1 -1.3
v -0.3 -1 -1.5
v -0.1 -1 -1.5
v 0.1 -1 -1.5
v 0.3 -1 -1.5
v -1.1 -0.0999999 1
v 1.1 -0.0999999 1
v -1 -0.0999999 -0.9
v -0.7 -0.0999999 -0.9
v 0.7 -0.0999999 -0.9
v 1 -0.0999999 -0.9
v -1.1 -0.0999999 -1
v -1 -0.0999999 -1
v -0.7 -0.0999999 -1
v -0.6 -0.0999999 -1
v 0.6 -0.0999999 -1
v 0.7 -0.0999999 -1
v 1 -0.0999999 -1
v 1.1 -0.0999999 -1
v -1 -0.0999999 -1.1
v -0.7 -0.0999999 -1.1
v -0.6 -0.0999999 -1.1
v 0.6 -0.0999999 -1.1
v 0.7 -0.0999999 -1.1
v 1 -0.0999999 -1.1
v -1 -0.0999999 -1.2
v -0.7 -0.0999999 -1.2
v -0.6 -0.0999999 -1.2
v 0.6 -0.0999999 -1.2
v 0.7 -0.0999999 -1.2
v 1 -0.0999999 -1.2
v -0.3 0.2 1.3
v -0.2 0.2 1.3
v 0.2 0.2 1.3
v 0.3 0.2 1.3
v -0.3 0.2 0.5
v -0.2 0.2 0.5
v 0.2 0.2 0.5
v 0.3 0.2 0.5
v -1 0.2 -0.9
v -0.7 0.2 -0.9
v 0.7 0.2 -0.9
v 1 0.2 -0.9
v -1 0.2 -1
v -0.7 0.2 -1
v 0.7 0.2 -1
v 1 0.2 -1
v -0.2 0.3 1.4
v -0.1 0.3 1.4
v 0.1 0.3 1.4
v 0.2 0.3 1.4
v -0.2 0.3 0.6
v -0.1 0.3 0.6
v 0.1 0.3 0.6
v 0.2 0.3 0.6
v -1.1 0.3 -1
v -0.6 0.3 -1
v 0.6 0.3 -1
v 1.1 0.3 -1
v -1.1 0.3 -1.1
v -0.6 0.3 -1.1
v 0.6 0.3 -1.1
v 1.1 0.3 -1.1
v -1.1 0.3 -1.2
v -0.6 0.3 -1.2
v 0.6 0.3 -1.2
v 1.1 0.3 -1.2
v -0.1 0.4 1.5
v 0.1 0.4 1.5
v -0.1 0.4 0.7
v 0.1 0.4 0.7
v -0.3 0.4 0.5
v -0.2 0.4 0.5
v 0.2 0.4 0.5
v 0.3 0.4 0.5
v -0.3 0.4 0.3
v -0.2 0.4 0.3
v 0.2 0.4 0.3
v 0.3 0.4 0.3
v -0.1 0.5 0.7
v 0.1 0.5 0.7
v -0.2 0.5 0.6
v -0.1 0.5 0.6
v 0.1 0.5 0.6
v 0.2 0.5 0.6
v -0.2 0.5 0.5
v -0.1 0.5 0.5
v 0.1 0.5 0.5
v 0.2 0.5 0.5
v -0.2 0.5 0.3
v -0.1 0.5 0.3
v 0.1 0.5 0.3
v 0.2 0.5 0.3
v -0.1 0.6 0.6
v 0.1 0.6 0.6
v -0.1 0.6 0.5
v 0.1 0.6 0.5
v -0.1 0.6 0.3
v 0.1 0.6 0.3

# faces
f 5/1/1 2/1/1 1/1/1
f 6/1/1 2/1/1 5/1/1
f 7/1/1 4/1/1 3/1/1
f 8/1/1 4/1/1 7/1/1
f 9/6/1 6/6/1 5/6/1
f 9/2/1 7/2/1 6/2/1
f 10/6/1 8/6/1 7/6/1
f 10/2/1 7/2/1 9/2/1
f 11/6/1 9/6/1 5/6/1
f 11/6/1 10/6/1 9/6/1
f 12/6/1 8/6/1 10/6/1
f 12/6/1 10/6/1 11/6/1
f 13/6/1 8/6/1 12/6/1
f 14/6/1 8/6/1 13/6/1
f 15/6/1 13/6/1 12/6/1
f 16/1/1 14/1/1 13/1/1
f 16/6/1 13/6/1 15/6/1
f 17/1/1 14/1/1 16/1/1
f 20/6/1 19/6/1 18/6/1
f 21/6/1 19/6/1 20/6/1
f 24/1/1 23/1/1 22/1/1
f 25/1/1 23/1/1 24/1/1
f 28/6/1 27/6/1 26/6/1
f 29/6/1 27/6/1 28/6/1
f 32/2/1 31/2/1 30/2/1
f 33/2/1 31/2/1 32/2/1
f 36/6/1 33/6/1 32/6/1
f 37/6/1 33/6/1 36/6/1
f 38/1/1 35/1/1 34/1/1
f 39/6/1 36/6/1 35/6/1
f 39/1/1 35/1/1 38/1/1
f 40/6/1 36/6/1 39/6/1
f 41/6/1 28/6/1 26/6/1
f 43/6/1 41/6/1 26/6/1
f 43/6/1 42/6/1 41/6/1
f 44/6/1 42/6/1 43/6/1
f 45/6/1 42/6/1 44/6/1
f 46/6/1 42/6/1 45/6/1
f 49/2/1 48/2/1 47/2/1
f 50/2/1 48/2/1 49/2/1
f 51/2/1 49/2/1 47/2/1
f 53/2/1 51/2/1 47/2/1
f 53/2/1 52/2/1 51/2/1
f 54/2/1 52/2/1 53/2/1
f 55/2/1 52/2/1 54/2/1
f 57/2/1 55/2/1 54/2/1
f 58/6/1 56/6/1 55/6/1
f 58/2/1 55/2/1 57/2/1
f 59/6/1 56/6/1 58/6/1
f 62/2/1 61/2/1 60/2/1
f 64/2/1 62/2/1 60/2/1
f 64/2/1 63/2/1 62/2/1
f 65/2/1 63/2/1 64/2/1
f 66/2/1 63/2/1 65/2/1
f 67/2/1 63/2/1 66/2/1
f 70/2/1 68/2/1 67/2/1
f 71/6/1 69/6/1 68/6/1
f 71/2/1 68/2/1 70/2/1
f 72/6/1 69/6/1 71/6/1
f 77/1/1 74/1/1 73/1/1
f 78/1/1 74/1/1 77/1/1
f 79/1/1 76/1/1 75/1/1
f 80/1/1 76/1/1 79/1/1
f 84/6/1 82/6/1 81/6/1
f 85/1/1 83/1/1 82/1/1
f 85/6/1 82/6/1 84/6/1
f 86/1/1 83/1/1 85/1/1
f 89/6/1 88/6/1 87/6/1
f 90/6/1 88/6/1 89/6/1
f 94/1/1 92/1/1 91/1/1
f 95/6/1 93/6/1 92/6/1
f 95/1/1 92/1/1 94/1/1
f 96/6/1 93/6/1 95/6/1
f 99/1/1 98/1/1 97/1/1
f 100/1/1 98/1/1 99/1/1
f 101/1/2 102/1/2 103/1/2
f 103/1/2 102/1/2 104/1/2
f 105/1/2 106/1/2 108/1/2
f 106/6/2 107/6/2 109/6/2
f 108/1/2 106/1/2 109/1/2
f 109/6/2 107/6/2 110/6/2
f 111/6/2 112/6/2 113/6/2
f 113/6/2 112/6/2 114/6/2
f 115/1/2 116/1/2 119/1/2
f 119/1/2 116/1/2 120/1/2
f 117/1/2 118/1/2 121/1/2
f 121/1/2 118/1/2 122/1/2
f 123/6/2 124/6/2 126/6/2
f 124/1/2 125/1/2 127/1/2
f 126/6/2 124/6/2 127/6/2
f 127/1/2 125/1/2 128/1/2
f 129/2/2 130/2/2 131/2/2
f 129/2/2 131/2/2 133/2/2
f 131/2/2 132/2/2 133/2/2
f 133/2/2 132/2/2 134/2/2
f 134/2/2 132/2/2 135/2/2
f 135/2/2 132/2/2 136/2/2
f 136/2/2 137/2/2 139/2/2
f 137/6/2 138/6/2 140/6/2
f 139/2/2 137/2/2 140/2/2
f 140/6/2 138/6/2 141/6/2
f 142/2/2 143/2/2 144/2/2
f 144/2/2 143/2/2 145/2/2
f 142/2/2 144/2/2 146/2/2
f 142/2/2 146/2/2 148/2/2
f 146/2/2 147/2/2 148/2/2
f 148/2/2 147/2/2 149/2/2
f 149/2/2 147/2/2 150/2/2
f 149/2/2 150/2/2 152/2/2
f 150/6/2 151/6/2 153/6/2
f 152/2/2 150/2/2 153/2/2
f 153/6/2 151/6/2 154/6/2
f 155/6/2 156/6/2 157/6/2
f 157/6/2 156/6/2 158/6/2
f 159/2/2 160/2/2 161/2/2
f 161/2/2 160/2/2 162/2/2
f 161/6/2 162/6/2 165/6/2
f 165/6/2 162/6/2 166/6/2
f 163/1/2 164/1/2 167/1/2
f 164/6/2 165/6/2 168/6/2
f 167/1/2 164/1/2 168/1/2
f 168/6/2 165/6/2 169/6/2
f 155/6/2 157/6/2 170/6/2
f 155/6/2 170/6/2 172/6/2
f 170/6/2 171/6/2 172/6/2
f 172/6/2 171/6/2 173/6/2
f 173/6/2 171/6/2 174/6/2
f 174/6/2 171/6/2 175/6/2
f 176/1/2 177/1/2 178/1/2
f 178/1/2 177/1/2 179/1/2
f 180/6/2 181/6/2 182/6/2
f 182/6/2 181/6/2 183/6/2
f 184/1/2 185/1/2 188/1/2
f 188/1/2 185/1/2 189/1/2
f 186/1/2 187/1/2 190/1/2
f 190/1/2 187/1/2 191/1/2
f 188/6/2 189/6/2 192/6/2
f 189/2/2 190/2/2 192/2/2
f 190/6/2 191/6/2 193/6/2
f 192/2/2 190/2/2 193/2/2
f 188/6/2 192/6/2 194/6/2
f 192/6/2 193/6/2 194/6/2
f 193/6/2 191/6/2 195/6/2
f 194/6/2 193/6/2 195/6/2
f 195/6/2 191/6/2 196/6/2
f 196/6/2 191/6/2 197/6/2
f 195/6/2 196/6/2 198/6/2
f 196/1/2 197/1/2 199/1/2
f 198/6/2 196/6/2 199/6/2
f 199/1/2 197/1/2 200/1/2
f 203/2/3 202/2/3 201/2/3
f 204/2/3 202/2/3 203/2/3
f 207/2/3 206/2/3 205/2/3
f 208/2/3 206/2/3 207/2/3
f 211/2/3 210/2/3 209/2/3
f 212/2/3 210/2/3 211/2/3
f 215/6/3 214/6/3 213/6/3
f 216/6/3 214/6/3 215/6/3
f 219/6/3 218/6/3 217/6/3
f 220/6/3 218/6/3 219/6/3
f 224/1/3 222/1/3 221/1/3
f 225/6/3 223/6/3 222/6/3
f 225/1/3 222/1/3 224/1/3
f 226/6/3 223/6/3 225/6/3
f 227/6/3 223/6/3 226/6/3
f 227/2/3 226/2/3 225/2/3
f 228/6/3 223/6/3 227/6/3
f 229/2/3 228/2/3 227/2/3
f 229/6/3 223/6/3 228/6/3
f 230/6/3 223/6/3 229/6/3
f 231/2/3 227/2/3 225/2/3
f 231/2/3 229/2/3 227/2/3
f 232/2/3 229/2/3 231/2/3
f 233/2/3 231/2/3 225/2/3
f 235/2/3 234/2/3 233/2/3
f 236/6/3 223/6/3 230/6/3
f 237/2/3 235/2/3 233/2/3
f 238/6/3 236/6/3 235/6/3
f 238/2/3 235/2/3 237/2/3
f 240/2/3 237/2/3 233/2/3
f 240/2/3 233/2/3 225/2/3
f 241/6/3 238/6/3 237/6/3
f 241/2/3 237/2/3 240/2/3
f 242/1/3 240/1/3 239/1/3
f 243/6/3 241/6/3 240/6/3
f 243/1/3 240/1/3 242/1/3
f 244/6/3 236/6/3 238/6/3
f 244/6/3 241/6/3 243/6/3
f 244/6/3 238/6/3 241/6/3
f 244/6/3 223/6/3 236/6/3
f 247/2/3 246/2/3 245/2/3
f 248/2/3 246/2/3 247/2/3
f 251/2/3 250/2/3 249/2/3
f 252/2/3 250/2/3 251/2/3
f 255/2/3 253/2/3 252/2/3
f 256/2/3 253/2/3 255/2/3
f 257/2/3 255/2/3 254/2/3
f 258/2/3 255/2/3 257/2/3
f 261/6/3 260/6/3 259/6/3
f 262/6/3 260/6/3 261/6/3
f 265/6/3 264/6/3 263/6/3
f 266/6/3 264/6/3 265/6/3
f 269/1/3 268/1/3 267/1/3
f 270/1/3 268/1/3 269/1/3
f 273/1/3 272/1/3 271/1/3
f 274/1/3 272/1/3 273/1/3
f 277/6/3 276/6/3 275/6/3
f 278/6/3 276/6/3 277/6/3
f 281/6/3 280/6/3 279/6/3
f 282/6/3 280/6/3 281/6/3
f 285/6/3 284/6/3 283/6/3
f 286/6/3 284/6/3 285/6/3
f 288/6/3 284/6/3 286/6/3
f 289/6/3 288/6/3 287/6/3
f 290/6/3 284/6/3 288/6/3
f 290/6/3 288/6/3 289/6/3
f 293/6/3 292/6/3 291/6/3
f 294/6/3 292/6/3 293/6/3
f 296/6/3 292/6/3 294/6/3
f 297/6/3 296/6/3 295/6/3
f 298/6/3 292/6/3 296/6/3
f 298/6/3 296/6/3 297/6/3
f 299/6/4 300/6/4 301/6/4
f 301/6/4 300/6/4 302/6/4
f 303/1/4 304/1/4 305/1/4
f 305/1/4 304/1/4 306/1/4
f 307/1/4 308/1/4 309/1/4
f 309/1/4 308/1/4 310/1/4
f 311/6/4 312/6/4 313/6/4
f 313/6/4 314/6/4 315/6/4
f 313/6/4 315/6/4 317/6/4
f 315/6/4 316/6/4 317/6/4
f 317/6/4 316/6/4 318/6/4
f 311/6/4 313/6/4 319/6/4
f 313/6/4 317/6/4 319/6/4
f 319/6/4 317/6/4 320/6/4
f 311/6/4 319/6/4 321/6/4
f 321/6/4 319/6/4 322/6/4
f 323/4/4 324/4/4 325/4/4
f 325/4/4 324/4/4 326/4/4
f 323/4/4 325/4/4 327/4/4
f 325/3/4 326/3/4 327/3/4
f 326/4/4 324/4/4 328/4/4
f 327/3/4 326/3/4 328/3/4
f 323/4/4 327/4/4 329/4/4
f 327/4/4 328/4/4 329/4/4
f 328/4/4 324/4/4 330/4/4
f 329/4/4 328/4/4 330/4/4
f 331/4/4 332/4/4 333/4/4
f 333/4/4 332/4/4 334/4/4
f 331/4/4 333/4/4 335/4/4
f 333/3/4 334/3/4 335/3/4
f 334/4/4 332/4/4 336/4/4
f 335/3/4 334/3/4 336/3/4
f 331/4/4 335/4/4 337/4/4
f 335/4/4 336/4/4 337/4/4
f 336/4/4 332/4/4 338/4/4
f 337/4/4 336/4/4 338/4/4
f 339/2/4 340/2/4 341/2/4
f 341/2/4 340/2/4 342/2/4
f 343/2/4 344/2/4 345/2/4
f 345/2/4 344/2/4 346/2/4
f 348/6/4 349/6/4 351/6/4
f 349/1/4 350/1/4 351/1/4
f 351/1/4 350/1/4 352/1/4
f 348/6/4 351/6/4 353/6/4
f 353/6/4 351/6/4 354/6/4
f 354/6/4 351/6/4 355/6/4
f 352/1/4 350/1/4 356/1/4
f 347/1/4 348/1/4 357/1/4
f 348/6/4 353/6/4 358/6/4
f 357/1/4 348/1/4 358/1/4
f 358/6/4 353/6/4 359/6/4
f 355/1/4 356/1/4 360/1/4
f 354/6/4 355/6/4 360/6/4
f 356/1/4 350/1/4 361/1/4
f 360/1/4 356/1/4 361/1/4
f 359/6/4 353/6/4 362/6/4
f 358/2/4 359/2/4 362/2/4
f 362/6/4 353/6/4 363/6/4
f 362/2/4 363/2/4 364/2/4
f 363/6/4 353/6/4 364/6/4
f 364/6/4 353/6/4 365/6/4
f 364/2/4 365/2/4 366/2/4
f 365/6/4 353/6/4 367/6/4
f 366/2/4 365/2/4 367/2/4
f 367/6/4 353/6/4 368/6/4
f 354/6/4 360/6/4 369/6/4
f 364/2/4 366/2/4 370/2/4
f 368/6/4 369/6/4 372/6/4
f 369/6/4 360/6/4 373/6/4
f 372/6/4 369/6/4 373/6/4
f 370/2/4 371/2/4 374/2/4
f 362/2/4 364/2/4 374/2/4
f 364/2/4 370/2/4 374/2/4
f 371/6/4 372/6/4 375/6/4
f 374/2/4 371/2/4 375/2/4
f 358/2/4 362/2/4 376/2/4
f 362/2/4 374/2/4 376/2/4
f 374/6/4 375/6/4 377/6/4
f 376/2/4 374/2/4 377/2/4
f 358/2/4 376/2/4 379/2/4
f 376/6/4 377/6/4 380/6/4
f 379/2/4 376/2/4 380/2/4
f 373/6/4 360/6/4 381/6/4
f 373/6/4 381/6/4 383/6/4
f 381/1/4 382/1/4 383/1/4
f 383/1/4 382/1/4 384/1/4
f 380/6/4 377/6/4 385/6/4
f 375/6/4 372/6/4 385/6/4
f 377/6/4 375/6/4 385/6/4
f 379/6/4 380/6/4 385/6/4
f 373/6/4 383/6/4 386/6/4
f 386/6/4 383/6/4 387/6/4
f 385/6/4 386/6/4 387/6/4
f 384/1/4 382/1/4 388/1/4
f 378/1/4 379/1/4 389/1/4
f 385/6/4 387/6/4 390/6/4
f 389/1/4 379/1/4 390/1/4
f 379/6/4 385/6/4 390/6/4
f 387/1/4 388/1/4 391/1/4
f 390/6/4 387/6/4 391/6/4
f 388/1/4 382/1/4 392/1/4
f 391/1/4 388/1/4 392/1/4
f 393/2/4 394/2/4 396/2/4
f 396/2/4 394/2/4 397/2/4
f 394/6/4 395/6/4 398/6/4
f 397/2/4 394/2/4 398/2/4
f 398/6/4 395/6/4 399/6/4
f 396/5/4 397/5/4 400/5/4
f 397/2/4 398/2/4 401/2/4
f 400/5/4 397/5/4 401/5/4
f 398/3/4 399/3/4 402/3/4
f 401/2/4 398/2/4 402/2/4
f 402/3/4 399/3/4 403/3/4
f 400/2/4 401/2/4 404/2/4
f 401/2/4 402/2/4 404/2/4
f 402/6/4 403/6/4 405/6/4
f 404/2/4 402/2/4 405/2/4
f 405/6/4 403/6/4 406/6/4
f 411/1/5 408/1/5 407/1/5
f 412/1/5 408/1/5 411/1/5
f 413/1/5 410/1/5 409/1/5
f 414/1/5 410/1/5 413/1/5
f 419/1/5 416/1/5 415/1/5
f 420/1/5 416/1/5 419/1/5
f 421/1/5 418/1/5 417/1/5
f 422/1/5 418/1/5 421/1/5
f 426/2/5 424/2/5 423/2/5
f 427/2/5 424/2/5 426/2/5
f 429/2/5 426/2/5 425/2/5
f 429/2/5 428/2/5 427/2/5
f 429/2/5 427/2/5 426/2/5
f 430/2/5 428/2/5 429/2/5
f 431/2/5 428/2/5 430/2/5
f 432/2/5 428/2/5 431/2/5
f 433/2/5 431/2/5 430/2/5
f 434/2/5 431/2/5 433/2/5
f 438/2/5 436/2/5 435/2/5
f 439/2/5 436/2/5 438/2/5
f 441/2/5 438/2/5 437/2/5
f 441/2/5 440/2/5 439/2/5
f 441/2/5 439/2/5 438/2/5
f 442/2/5 440/2/5 441/2/5
f 447/6/5 444/6/5 443/6/5
f 448/6/5 444/6/5 447/6/5
f 449/6/5 446/6/5 445/6/5
f 450/6/5 446/6/5 449/6/5
f 453/2/5 452/2/5 451/2/5
f 454/2/5 452/2/5 453/2/5
f 455/2/5 453/2/5 451/2/5
f 456/5/5 454/5/5 453/5/5
f 456/2/5 453/2/5 455/2/5
f 457/2/5 452/2/5 454/2/5
f 457/5/5 454/5/5 456/5/5
f 458/2/5 452/2/5 457/2/5
f 463/1/5 460/1/5 459/1/5
f 464/1/5 460/1/5 463/1/5
f 465/1/5 462/1/5 461/1/5
f 466/1/5 462/1/5 465/1/5
f 467/6/5 464/6/5 463/6/5
f 468/6/5 464/6/5 467/6/5
f 469/6/5 466/6/5 465/6/5
f 470/6/5 466/6/5 469/6/5
f 473/6/5 472/6/5 471/6/5
f 474/6/5 472/6/5 473/6/5
f 479/1/5 476/1/5 475/1/5
f 480/1/5 476/1/5 479/1/5
f 481/1/5 478/1/5 477/1/5
f 482/1/5 478/1/5 481/1/5
f 483/6/6 484/6/6 485/6/6
f 485/6/6 484/6/6 486/6/6
f 487/1/6 488/1/6 491/1/6
f 491/1/6 488/1/6 492/1/6
f 489/1/6 490/1/6 493/1/6
f 493/1/6 490/1/6 494/1/6
f 491/6/6 492/6/6 495/6/6
f 495/6/6 492/6/6 496/6/6
f 493/6/6 494/6/6 497/6/6
f 497/6/6 494/6/6 498/6/6
f 496/6/6 497/6/6 499/6/6
f 499/6/6 497/6/6 500/6/6
f 496/6/6 499/6/6 501/6/6
f 499/3/6 500/3/6 502/3/6
f 501/6/6 499/6/6 502/6/6
f 500/6/6 497/6/6 503/6/6
f 502/3/6 500/3/6 503/3/6
f 503/6/6 497/6/6 504/6/6
f 505/6/6 506/6/6 507/6/6
f 507/6/6 506/6/6 508/6/6
f 508/6/6 506/6/6 509/6/6
f 509/6/6 506/6/6 510/6/6
f 505/6/6 507/6/6 511/6/6
f 511/6/6 507/6/6 512/6/6
f 508/6/6 509/6/6 513/6/6
f 513/6/6 509/6/6 514/6/6
f 514/6/6 509/6/6 515/6/6
f 515/6/6 509/6/6 516/6/6
f 510/6/6 506/6/6 517/6/6
f 517/6/6 506/6/6 518/6/6
f 514/6/6 515/6/6 521/6/6
f 521/6/6 515/6/6 522/6/6
f 519/6/6 520/6/6 525/6/6
f 525/6/6 520/6/6 526/6/6
f 521/6/6 522/6/6 527/6/6
f 527/6/6 522/6/6 528/6/6
f 523/6/6 524/6/6 529/6/6
f 529/6/6 524/6/6 530/6/6
f 531/6/6 532/6/6 535/6/6
f 535/6/6 532/6/6 536/6/6
f 533/6/6 534/6/6 537/6/6
f 537/6/6 534/6/6 538/6/6
f 539/6/6 540/6/6 543/6/6
f 543/6/6 540/6/6 544/6/6
f 541/6/6 542/6/6 545/6/6
f 545/6/6 542/6/6 546/6/6
f 547/2/6 548/2/6 551/2/6
f 551/2/6 548/2/6 552/2/6
f 549/2/6 550/2/6 553/2/6
f 553/2/6 550/2/6 554/2/6
f 555/6/6 556/6/6 559/6/6
f 559/6/6 556/6/6 560/6/6
f 557/6/6 558/6/6 561/6/6
f 561/6/6 558/6/6 562/6/6
f 559/1/6 560/1/6 563/1/6
f 563/1/6 560/1/6 564/1/6
f 561/1/6 562/1/6 565/1/6
f 565/1/6 562/1/6 566/1/6
f 567/2/6 568/2/6 569/2/6
f 569/2/6 568/2/6 570/2/6
f 571/6/6 572/6/6 575/6/6
f 575/6/6 572/6/6 576/6/6
f 573/6/6 574/6/6 577/6/6
f 577/6/6 574/6/6 578/6/6
f 579/2/6 580/2/6 582/2/6
f 582/2/6 580/2/6 583/2/6
f 581/2/6 582/2/6 585/2/6
f 585/2/6 582/2/6 586/2/6
f 583/2/6 584/2/6 587/2/6
f 587/2/6 584/2/6 588/2/6
f 585/6/6 586/6/6 589/6/6
f 589/6/6 586/6/6 590/6/6
f 587/6/6 588/6/6 591/6/6
f 591/6/6 588/6/6 592/6/6
f 593/2/6 594/2/6 595/2/6
f 595/2/6 594/2/6 596/2/6
f 595/6/6 596/6/6 597/6/6
f 597/6/6 596/6/6 598/6/6
