# MagicaVoxel @ Ephtracy

# group
o 

# material
mtllib Character-6.mtl
usemtl palette

# normals
vn -1 0 0
vn 1 0 0
vn 0 0 1
vn 0 0 -1
vn 0 -1 0
vn 0 1 0

# texcoords
vt 0.943359 0.5
vt 0.970703 0.5
vt 0.974609 0.5
vt 0.978516 0.5
vt 0.982422 0.5
vt 0.986328 0.5

# verts
v -1.1 1.9 -0.9
v -1.1 1.9 -1.1
v -1.1 2.4 -0.9
v -1.1 2.4 -1.1
v -1 0 1.1
v -1 0 0.5
v -1 0 -0.5
v -1 0 -1.1
v -1 0.3 0.5
v -1 0.3 0.4
v -1 0.3 -0.3
v -1 0.3 -0.5
v -1 0.5 0.7
v -1 0.5 0.5
v -1 0.6 -0.5
v -1 0.6 -0.7
v -1 0.7 1.1
v -1 0.7 0.7
v -1 0.8 -0.7
v -1 0.8 -1.1
v -1 1.9 -0.8
v -1 1.9 -0.9
v -1 1.9 -1.1
v -1 2.1 1.1
v -1 2.1 0.4
v -1 2.1 -0.3
v -1 2.1 -0.8
v -1 2.3 -0.8
v -1 2.3 -0.9
v -0.7 2 -1
v -0.7 2 -1.1
v -0.7 2.3 -1
v -0.7 2.3 -1.1
v -0.2 0.8 -1.1
v -0.2 0.8 -1.4
v -0.2 1.2 -0.9
v -0.2 1.2 -1
v -0.2 1.2 -1.1
v -0.2 1.2 -1.4
v -0.2 1.7 -0.9
v -0.2 1.7 -1
v -0.2 1.7 -1.1
v -0.0999999 1 1.3
v -0.0999999 1 1.1
v -0.0999999 1.4 1.3
v -0.0999999 1.4 1.1
v 0.7 0 1.1
v 0.7 0 0.5
v 0.7 0 -0.5
v 0.7 0 -1.1
v 0.7 0.3 1.1
v 0.7 0.3 0.5
v 0.7 0.3 -0.5
v 0.7 0.3 -1.1
v 0.8 2.1 -0.9
v 0.8 2.1 -1.1
v 0.8 2.4 -0.9
v 0.8 2.4 -1.1
v 0.9 1.2 -0.9
v 0.9 1.2 -1
v 0.9 1.2 -1.1
v 0.9 1.7 -0.9
v 0.9 1.7 -1
v 0.9 1.7 -1.1
v 0.9 2.1 -0.8
v 0.9 2.1 -0.9
v 0.9 2.3 -0.8
v 0.9 2.3 -0.9
v 1.2 2 -1
v 1.2 2 -1.1
v 1.2 2.3 -1
v 1.2 2.3 -1.1
v -1 2 -1
v -1 2 -1.1
v -1 2.3 -1
v -1 2.3 -1.1
v -0.7 1.2 -0.9
v -0.7 1.2 -1
v -0.7 1.2 -1.1
v -0.7 1.7 -0.9
v -0.7 1.7 -1
v -0.7 1.7 -1.1
v -0.7 2.1 -0.8
v -0.7 2.1 -0.9
v -0.7 2.3 -0.8
v -0.7 2.3 -0.9
v -0.6 2.1 -0.9
v -0.6 2.1 -1.1
v -0.6 2.4 -0.9
v -0.6 2.4 -1.1
v -0.5 0 1.1
v -0.5 0 0.5
v -0.5 0 -0.5
v -0.5 0 -1.1
v -0.5 0.3 1.1
v -0.5 0.3 0.5
v -0.5 0.3 -0.5
v -0.5 0.3 -1.1
v 0.3 1 1.3
v 0.3 1 1.1
v 0.3 1.4 1.3
v 0.3 1.4 1.1
v 0.4 0.8 -1.1
v 0.4 0.8 -1.4
v 0.4 1.2 -0.9
v 0.4 1.2 -1
v 0.4 1.2 -1.1
v 0.4 1.2 -1.4
v 0.4 1.7 -0.9
v 0.4 1.7 -1
v 0.4 1.7 -1.1
v 0.9 2 -1
v 0.9 2 -1.1
v 0.9 2.3 -1
v 0.9 2.3 -1.1
v 1.2 0 1.1
v 1.2 0 0.5
v 1.2 0 -0.5
v 1.2 0 -1.1
v 1.2 0.3 0.5
v 1.2 0.3 0.4
v 1.2 0.3 -0.3
v 1.2 0.3 -0.5
v 1.2 0.6 0.7
v 1.2 0.6 0.5
v 1.2 0.6 -0.5
v 1.2 0.6 -0.7
v 1.2 0.8 1.1
v 1.2 0.8 0.7
v 1.2 0.8 -0.7
v 1.2 0.8 -1.1
v 1.2 1.9 -0.8
v 1.2 1.9 -0.9
v 1.2 1.9 -1.1
v 1.2 2.1 1.1
v 1.2 2.1 0.4
v 1.2 2.1 -0.3
v 1.2 2.1 -0.8
v 1.2 2.3 -0.8
v 1.2 2.3 -0.9
v 1.3 1.9 -0.9
v 1.3 1.9 -1.1
v 1.3 2.4 -0.9
v 1.3 2.4 -1.1
v -0.0999999 1 1.3
v -0.0999999 1.4 1.3
v 0.3 1 1.3
v 0.3 1.4 1.3
v -1 0 1.1
v -1 0.7 1.1
v -1 2.1 1.1
v -0.7 0.5 1.1
v -0.7 0.7 1.1
v -0.5 0 1.1
v -0.5 0.3 1.1
v -0.5 0.5 1.1
v -0.0999999 1 1.1
v -0.0999999 1.4 1.1
v 0.3 1 1.1
v 0.3 1.4 1.1
v 0.7 0 1.1
v 0.7 0.3 1.1
v 0.7 0.6 1.1
v 0.9 0.6 1.1
v 0.9 0.8 1.1
v 1.2 0 1.1
v 1.2 0.8 1.1
v 1.2 2.1 1.1
v -1 0 -0.5
v -1 0.3 -0.5
v -0.5 0 -0.5
v -0.5 0.3 -0.5
v 0.7 0 -0.5
v 0.7 0.3 -0.5
v 1.2 0 -0.5
v 1.2 0.3 -0.5
v -1 2.1 -0.8
v -1 2.3 -0.8
v -0.7 2.1 -0.8
v -0.7 2.3 -0.8
v 0.9 2.1 -0.8
v 0.9 2.3 -0.8
v 1.2 2.1 -0.8
v 1.2 2.3 -0.8
v -1.1 1.9 -0.9
v -1.1 2.4 -0.9
v -1 1.9 -0.9
v -1 2.3 -0.9
v -0.7 2.1 -0.9
v -0.7 2.3 -0.9
v -0.6 2.1 -0.9
v -0.6 2.4 -0.9
v 0.8 2.1 -0.9
v 0.8 2.4 -0.9
v 0.9 2.1 -0.9
v 0.9 2.3 -0.9
v 1.2 1.9 -0.9
v 1.2 2.3 -0.9
v 1.3 1.9 -0.9
v 1.3 2.4 -0.9
v -1 0 0.5
v -1 0.3 0.5
v -0.5 0 0.5
v -0.5 0.3 0.5
v 0.7 0 0.5
v 0.7 0.3 0.5
v 1.2 0 0.5
v 1.2 0.3 0.5
v -0.7 1.2 -0.9
v -0.7 1.7 -0.9
v -0.6 1.3 -0.9
v -0.6 1.6 -0.9
v -0.5 1.4 -0.9
v -0.5 1.5 -0.9
v -0.4 1.4 -0.9
v -0.4 1.5 -0.9
v -0.3 1.3 -0.9
v -0.3 1.6 -0.9
v -0.2 1.2 -0.9
v -0.2 1.7 -0.9
v 0.4 1.2 -0.9
v 0.4 1.7 -0.9
v 0.5 1.3 -0.9
v 0.5 1.6 -0.9
v 0.6 1.4 -0.9
v 0.6 1.5 -0.9
v 0.7 1.4 -0.9
v 0.7 1.5 -0.9
v 0.8 1.3 -0.9
v 0.8 1.6 -0.9
v 0.9 1.2 -0.9
v 0.9 1.7 -0.9
v -1 2 -1
v -1 2.3 -1
v -0.7 2 -1
v -0.7 2.3 -1
v 0.9 2 -1
v 0.9 2.3 -1
v 1.2 2 -1
v 1.2 2.3 -1
v -1.1 1.9 -1.1
v -1.1 2.4 -1.1
v -1 0 -1.1
v -1 0.8 -1.1
v -1 1.9 -1.1
v -1 2 -1.1
v -1 2.3 -1.1
v -0.7 0.6 -1.1
v -0.7 0.8 -1.1
v -0.7 1.2 -1.1
v -0.7 1.7 -1.1
v -0.7 2 -1.1
v -0.7 2.3 -1.1
v -0.6 1.9 -1.1
v -0.6 2.1 -1.1
v -0.6 2.4 -1.1
v -0.5 0 -1.1
v -0.5 0.3 -1.1
v -0.5 0.6 -1.1
v -0.2 0.8 -1.1
v -0.2 1.2 -1.1
v -0.2 1.7 -1.1
v 0.4 0.8 -1.1
v 0.4 1.2 -1.1
v 0.4 1.7 -1.1
v 0.7 0 -1.1
v 0.7 0.3 -1.1
v 0.7 0.6 -1.1
v 0.8 1.9 -1.1
v 0.8 2.1 -1.1
v 0.8 2.4 -1.1
v 0.9 0.6 -1.1
v 0.9 0.8 -1.1
v 0.9 1.2 -1.1
v 0.9 1.7 -1.1
v 0.9 2 -1.1
v 0.9 2.3 -1.1
v 1.2 0 -1.1
v 1.2 0.8 -1.1
v 1.2 1.9 -1.1
v 1.2 2 -1.1
v 1.2 2.3 -1.1
v 1.3 1.9 -1.1
v 1.3 2.4 -1.1
v -0.2 0.8 -1.4
v -0.2 1.2 -1.4
v -0.0999999 1 -1.4
v -0.0999999 1.2 -1.4
v 1.19209e-07 0.8 -1.4
v 1.19209e-07 0.9 -1.4
v 0.2 0.8 -1.4
v 0.2 0.9 -1.4
v 0.3 1 -1.4
v 0.3 1.2 -1.4
v 0.4 0.8 -1.4
v 0.4 1.2 -1.4
v -1 0 1.1
v -0.5 0 1.1
v 0.7 0 1.1
v 1.2 0 1.1
v -1 0 0.5
v -0.5 0 0.5
v 0.7 0 0.5
v 1.2 0 0.5
v -1 0 -0.5
v -0.5 0 -0.5
v 0.7 0 -0.5
v 1.2 0 -0.5
v -1 0 -1.1
v -0.5 0 -1.1
v 0.7 0 -1.1
v 1.2 0 -1.1
v -0.5 0.3 1.1
v 0.7 0.3 1.1
v -1 0.3 0.5
v -0.5 0.3 0.5
v 0.7 0.3 0.5
v 1.2 0.3 0.5
v -1 0.3 0.4
v -0.9 0.3 0.4
v 1.1 0.3 0.4
v 1.2 0.3 0.4
v -1 0.3 -0.3
v -0.9 0.3 -0.3
v 1.1 0.3 -0.3
v 1.2 0.3 -0.3
v -1 0.3 -0.5
v -0.5 0.3 -0.5
v 0.7 0.3 -0.5
v 1.2 0.3 -0.5
v -0.5 0.3 -1.1
v 0.7 0.3 -1.1
v -0.2 0.8 -1.1
v 0.4 0.8 -1.1
v 1.19209e-07 0.8 -1.3
v 0.2 0.8 -1.3
v -0.2 0.8 -1.4
v 1.19209e-07 0.8 -1.4
v 0.2 0.8 -1.4
v 0.4 0.8 -1.4
v -0.0999999 1 1.3
v 0.3 1 1.3
v -0.0999999 1 1.1
v 0.3 1 1.1
v -0.7 1.7 -0.9
v -0.2 1.7 -0.9
v 0.4 1.7 -0.9
v 0.9 1.7 -0.9
v -0.7 1.7 -1
v -0.2 1.7 -1
v 0.4 1.7 -1
v 0.9 1.7 -1
v -0.7 1.7 -1.1
v -0.2 1.7 -1.1
v 0.4 1.7 -1.1
v 0.9 1.7 -1.1
v -1.1 1.9 -0.9
v -1 1.9 -0.9
v 1.2 1.9 -0.9
v 1.3 1.9 -0.9
v -1.1 1.9 -1.1
v -1 1.9 -1.1
v 1.2 1.9 -1.1
v 1.3 1.9 -1.1
v -1 2.3 -1
v -0.7 2.3 -1
v 0.9 2.3 -1
v 1.2 2.3 -1
v -1 2.3 -1.1
v -0.7 2.3 -1.1
v 0.9 2.3 -1.1
v 1.2 2.3 -1.1
v -0.7 1.2 -0.9
v -0.2 1.2 -0.9
v 0.4 1.2 -0.9
v 0.9 1.2 -0.9
v -0.7 1.2 -1
v -0.2 1.2 -1
v 0.4 1.2 -1
v 0.9 1.2 -1
v -0.7 1.2 -1.1
v -0.2 1.2 -1.1
v 0.4 1.2 -1.1
v 0.9 1.2 -1.1
v -0.0999999 1.2 -1.2
v 0.3 1.2 -1.2
v -0.2 1.2 -1.4
v -0.0999999 1.2 -1.4
v 0.3 1.2 -1.4
v 0.4 1.2 -1.4
v -0.0999999 1.4 1.3
v 0.3 1.4 1.3
v -0.0999999 1.4 1.1
v 0.3 1.4 1.1
v -1 2 -1
v -0.7 2 -1
v 0.9 2 -1
v 1.2 2 -1
v -1 2 -1.1
v -0.7 2 -1.1
v 0.9 2 -1.1
v 1.2 2 -1.1
v -1 2.1 1.1
v 1.2 2.1 1.1
v -1 2.1 0.4
v 1.2 2.1 0.4
v -1 2.1 -0.3
v 1.2 2.1 -0.3
v -1 2.1 -0.8
v -0.7 2.1 -0.8
v 0.9 2.1 -0.8
v 1.2 2.1 -0.8
v -0.7 2.1 -0.9
v -0.6 2.1 -0.9
v 0.8 2.1 -0.9
v 0.9 2.1 -0.9
v -0.6 2.1 -1.1
v 0.8 2.1 -1.1
v -1 2.3 -0.8
v -0.7 2.3 -0.8
v 0.9 2.3 -0.8
v 1.2 2.3 -0.8
v -1 2.3 -0.9
v -0.7 2.3 -0.9
v 0.9 2.3 -0.9
v 1.2 2.3 -0.9
v -1.1 2.4 -0.9
v -0.6 2.4 -0.9
v 0.8 2.4 -0.9
v 1.3 2.4 -0.9
v -1.1 2.4 -1.1
v -0.6 2.4 -1.1
v 0.8 2.4 -1.1
v 1.3 2.4 -1.1

# faces
f 3/1/1 2/1/1 1/1/1
f 4/1/1 2/1/1 3/1/1
f 9/1/1 6/1/1 5/1/1
f 12/1/1 8/1/1 7/1/1
f 13/1/1 9/1/1 5/1/1
f 14/3/1 10/3/1 9/3/1
f 14/1/1 9/1/1 13/1/1
f 15/3/1 12/3/1 11/3/1
f 15/1/1 8/1/1 12/1/1
f 16/1/1 8/1/1 15/1/1
f 17/1/1 13/1/1 5/1/1
f 18/3/1 14/3/1 13/3/1
f 18/1/1 13/1/1 17/1/1
f 19/1/1 8/1/1 16/1/1
f 19/3/1 16/3/1 15/3/1
f 20/1/1 8/1/1 19/1/1
f 21/3/1 20/3/1 19/3/1
f 22/3/1 20/3/1 21/3/1
f 23/3/1 20/3/1 22/3/1
f 24/3/1 18/3/1 17/3/1
f 25/1/1 11/1/1 10/1/1
f 25/3/1 18/3/1 24/3/1
f 25/3/1 10/3/1 14/3/1
f 25/3/1 14/3/1 18/3/1
f 26/3/1 21/3/1 19/3/1
f 26/1/1 11/1/1 25/1/1
f 26/3/1 15/3/1 11/3/1
f 26/3/1 19/3/1 15/3/1
f 27/1/1 22/1/1 21/1/1
f 27/3/1 21/3/1 26/3/1
f 28/1/1 22/1/1 27/1/1
f 29/1/1 22/1/1 28/1/1
f 32/1/1 31/1/1 30/1/1
f 33/1/1 31/1/1 32/1/1
f 38/3/1 35/3/1 34/3/1
f 39/3/1 35/3/1 38/3/1
f 40/1/1 37/1/1 36/1/1
f 41/3/1 38/3/1 37/3/1
f 41/1/1 37/1/1 40/1/1
f 42/3/1 38/3/1 41/3/1
f 45/1/1 44/1/1 43/1/1
f 46/1/1 44/1/1 45/1/1
f 51/1/1 48/1/1 47/1/1
f 52/1/1 48/1/1 51/1/1
f 53/1/1 50/1/1 49/1/1
f 54/1/1 50/1/1 53/1/1
f 57/1/1 56/1/1 55/1/1
f 58/1/1 56/1/1 57/1/1
f 62/1/1 60/1/1 59/1/1
f 63/3/1 61/3/1 60/3/1
f 63/1/1 60/1/1 62/1/1
f 64/3/1 61/3/1 63/3/1
f 67/1/1 66/1/1 65/1/1
f 68/1/1 66/1/1 67/1/1
f 71/1/1 70/1/1 69/1/1
f 72/1/1 70/1/1 71/1/1
f 73/1/2 74/1/2 75/1/2
f 75/1/2 74/1/2 76/1/2
f 77/1/2 78/1/2 80/1/2
f 78/3/2 79/3/2 81/3/2
f 80/1/2 78/1/2 81/1/2
f 81/3/2 79/3/2 82/3/2
f 83/1/2 84/1/2 85/1/2
f 85/1/2 84/1/2 86/1/2
f 87/1/2 88/1/2 89/1/2
f 89/1/2 88/1/2 90/1/2
f 91/1/2 92/1/2 95/1/2
f 95/1/2 92/1/2 96/1/2
f 93/1/2 94/1/2 97/1/2
f 97/1/2 94/1/2 98/1/2
f 99/1/2 100/1/2 101/1/2
f 101/1/2 100/1/2 102/1/2
f 103/3/2 104/3/2 107/3/2
f 107/3/2 104/3/2 108/3/2
f 105/1/2 106/1/2 109/1/2
f 106/3/2 107/3/2 110/3/2
f 109/1/2 106/1/2 110/1/2
f 110/3/2 107/3/2 111/3/2
f 112/1/2 113/1/2 114/1/2
f 114/1/2 113/1/2 115/1/2
f 116/1/2 117/1/2 120/1/2
f 118/1/2 119/1/2 123/1/2
f 116/1/2 120/1/2 124/1/2
f 120/3/2 121/3/2 125/3/2
f 124/1/2 120/1/2 125/1/2
f 122/3/2 123/3/2 126/3/2
f 123/1/2 119/1/2 126/1/2
f 126/1/2 119/1/2 127/1/2
f 116/1/2 124/1/2 128/1/2
f 124/3/2 125/3/2 129/3/2
f 128/1/2 124/1/2 129/1/2
f 127/1/2 119/1/2 130/1/2
f 126/3/2 127/3/2 130/3/2
f 130/1/2 119/1/2 131/1/2
f 130/3/2 131/3/2 132/3/2
f 132/3/2 131/3/2 133/3/2
f 133/3/2 131/3/2 134/3/2
f 128/3/2 129/3/2 135/3/2
f 121/1/2 122/1/2 136/1/2
f 135/3/2 129/3/2 136/3/2
f 125/3/2 121/3/2 136/3/2
f 129/3/2 125/3/2 136/3/2
f 130/3/2 132/3/2 137/3/2
f 136/1/2 122/1/2 137/1/2
f 122/3/2 126/3/2 137/3/2
f 126/3/2 130/3/2 137/3/2
f 132/1/2 133/1/2 138/1/2
f 137/3/2 132/3/2 138/3/2
f 138/1/2 133/1/2 139/1/2
f 139/1/2 133/1/2 140/1/2
f 141/1/2 142/1/2 143/1/2
f 143/1/2 142/1/2 144/1/2
f 147/1/3 146/1/3 145/1/3
f 148/1/3 146/1/3 147/1/3
f 152/1/3 150/1/3 149/1/3
f 153/3/3 151/3/3 150/3/3
f 153/1/3 150/1/3 152/1/3
f 154/1/3 152/1/3 149/1/3
f 155/1/3 152/1/3 154/1/3
f 156/3/3 153/3/3 152/3/3
f 156/1/3 152/1/3 155/1/3
f 157/3/3 151/3/3 153/3/3
f 157/3/3 153/3/3 156/3/3
f 157/3/3 156/3/3 155/3/3
f 158/3/3 151/3/3 157/3/3
f 159/3/3 157/3/3 155/3/3
f 160/3/3 151/3/3 158/3/3
f 162/3/3 159/3/3 155/3/3
f 162/3/3 160/3/3 159/3/3
f 163/3/3 160/3/3 162/3/3
f 164/1/3 162/1/3 161/1/3
f 164/3/3 160/3/3 163/3/3
f 164/1/3 163/1/3 162/1/3
f 165/3/3 160/3/3 164/3/3
f 166/1/3 164/1/3 161/1/3
f 166/1/3 165/1/3 164/1/3
f 167/3/3 160/3/3 165/3/3
f 167/1/3 165/1/3 166/1/3
f 168/3/3 151/3/3 160/3/3
f 168/3/3 160/3/3 167/3/3
f 171/1/3 170/1/3 169/1/3
f 172/1/3 170/1/3 171/1/3
f 175/1/3 174/1/3 173/1/3
f 176/1/3 174/1/3 175/1/3
f 179/1/3 178/1/3 177/1/3
f 180/1/3 178/1/3 179/1/3
f 183/1/3 182/1/3 181/1/3
f 184/1/3 182/1/3 183/1/3
f 187/1/3 186/1/3 185/1/3
f 188/1/3 186/1/3 187/1/3
f 190/1/3 186/1/3 188/1/3
f 191/1/3 190/1/3 189/1/3
f 192/1/3 186/1/3 190/1/3
f 192/1/3 190/1/3 191/1/3
f 195/1/3 194/1/3 193/1/3
f 196/1/3 194/1/3 195/1/3
f 198/1/3 194/1/3 196/1/3
f 199/1/3 198/1/3 197/1/3
f 200/1/3 194/1/3 198/1/3
f 200/1/3 198/1/3 199/1/3
f 201/1/4 202/1/4 203/1/4
f 203/1/4 202/1/4 204/1/4
f 205/1/4 206/1/4 207/1/4
f 207/1/4 206/1/4 208/1/4
f 209/1/4 210/1/4 211/1/4
f 211/1/4 210/1/4 212/1/4
f 211/3/4 212/3/4 213/3/4
f 213/3/4 212/3/4 214/3/4
f 211/3/4 213/3/4 215/3/4
f 213/4/4 214/4/4 215/4/4
f 214/3/4 212/3/4 216/3/4
f 215/4/4 214/4/4 216/4/4
f 209/1/4 211/1/4 217/1/4
f 211/3/4 215/3/4 217/3/4
f 215/3/4 216/3/4 217/3/4
f 216/3/4 212/3/4 218/3/4
f 217/3/4 216/3/4 218/3/4
f 212/1/4 210/1/4 218/1/4
f 209/1/4 217/1/4 219/1/4
f 217/1/4 218/1/4 219/1/4
f 218/1/4 210/1/4 220/1/4
f 219/1/4 218/1/4 220/1/4
f 221/1/4 222/1/4 223/1/4
f 223/1/4 222/1/4 224/1/4
f 223/3/4 224/3/4 225/3/4
f 225/3/4 224/3/4 226/3/4
f 223/3/4 225/3/4 227/3/4
f 225/4/4 226/4/4 227/4/4
f 226/3/4 224/3/4 228/3/4
f 227/4/4 226/4/4 228/4/4
f 221/1/4 223/1/4 229/1/4
f 223/3/4 227/3/4 229/3/4
f 227/3/4 228/3/4 229/3/4
f 228/3/4 224/3/4 230/3/4
f 229/3/4 228/3/4 230/3/4
f 224/1/4 222/1/4 230/1/4
f 221/1/4 229/1/4 231/1/4
f 229/1/4 230/1/4 231/1/4
f 230/1/4 222/1/4 232/1/4
f 231/1/4 230/1/4 232/1/4
f 233/2/4 234/2/4 235/2/4
f 235/2/4 234/2/4 236/2/4
f 237/2/4 238/2/4 239/2/4
f 239/2/4 238/2/4 240/2/4
f 241/1/4 242/1/4 245/1/4
f 245/1/4 242/1/4 246/1/4
f 246/1/4 242/1/4 247/1/4
f 243/1/4 244/1/4 248/1/4
f 244/3/4 245/3/4 249/3/4
f 248/1/4 244/1/4 249/1/4
f 249/3/4 245/3/4 250/3/4
f 250/3/4 245/3/4 251/3/4
f 245/1/4 246/1/4 252/1/4
f 247/1/4 242/1/4 253/1/4
f 245/1/4 252/1/4 254/1/4
f 252/1/4 253/1/4 254/1/4
f 251/3/4 245/3/4 254/3/4
f 254/1/4 253/1/4 255/1/4
f 253/1/4 242/1/4 256/1/4
f 255/1/4 253/1/4 256/1/4
f 243/1/4 248/1/4 257/1/4
f 257/1/4 248/1/4 258/1/4
f 248/3/4 249/3/4 259/3/4
f 258/1/4 248/1/4 259/1/4
f 249/3/4 250/3/4 259/3/4
f 259/3/4 250/3/4 260/3/4
f 258/3/4 259/3/4 260/3/4
f 260/3/4 250/3/4 261/3/4
f 254/3/4 255/3/4 262/3/4
f 251/3/4 254/3/4 262/3/4
f 258/3/4 260/3/4 263/3/4
f 261/3/4 262/3/4 264/3/4
f 262/3/4 255/3/4 265/3/4
f 264/3/4 262/3/4 265/3/4
f 258/3/4 263/3/4 267/3/4
f 263/3/4 264/3/4 267/3/4
f 267/3/4 264/3/4 268/3/4
f 265/3/4 255/3/4 269/3/4
f 269/3/4 255/3/4 270/3/4
f 268/3/4 264/3/4 272/3/4
f 266/1/4 267/1/4 272/1/4
f 267/1/4 268/1/4 272/1/4
f 272/3/4 264/3/4 273/3/4
f 273/3/4 264/3/4 274/3/4
f 265/3/4 269/3/4 275/3/4
f 270/1/4 271/1/4 276/1/4
f 269/1/4 270/1/4 276/1/4
f 276/1/4 271/1/4 277/1/4
f 266/1/4 272/1/4 278/1/4
f 272/1/4 273/1/4 278/1/4
f 274/3/4 275/3/4 279/3/4
f 278/1/4 273/1/4 279/1/4
f 273/3/4 274/3/4 279/3/4
f 275/3/4 269/3/4 280/3/4
f 279/3/4 275/3/4 280/3/4
f 269/1/4 276/1/4 280/1/4
f 280/1/4 276/1/4 281/1/4
f 277/1/4 271/1/4 282/1/4
f 281/1/4 282/1/4 283/1/4
f 280/1/4 281/1/4 283/1/4
f 282/1/4 271/1/4 284/1/4
f 283/1/4 282/1/4 284/1/4
f 285/3/4 286/3/4 287/3/4
f 287/3/4 286/3/4 288/3/4
f 285/3/4 287/3/4 289/3/4
f 289/3/4 287/3/4 290/3/4
f 289/6/4 290/6/4 291/6/4
f 290/3/4 287/3/4 292/3/4
f 291/6/4 290/6/4 292/6/4
f 287/1/4 288/1/4 293/1/4
f 292/3/4 287/3/4 293/3/4
f 291/3/4 292/3/4 293/3/4
f 293/1/4 288/1/4 294/1/4
f 291/3/4 293/3/4 295/3/4
f 293/3/4 294/3/4 295/3/4
f 295/3/4 294/3/4 296/3/4
f 301/1/5 298/1/5 297/1/5
f 302/1/5 298/1/5 301/1/5
f 303/1/5 300/1/5 299/1/5
f 304/1/5 300/1/5 303/1/5
f 309/1/5 306/1/5 305/1/5
f 310/1/5 306/1/5 309/1/5
f 311/1/5 308/1/5 307/1/5
f 312/1/5 308/1/5 311/1/5
f 316/3/5 314/3/5 313/3/5
f 317/3/5 314/3/5 316/3/5
f 319/3/5 316/3/5 315/3/5
f 319/3/5 318/3/5 317/3/5
f 319/3/5 317/3/5 316/3/5
f 320/3/5 318/3/5 319/3/5
f 321/3/5 318/3/5 320/3/5
f 322/3/5 318/3/5 321/3/5
f 323/1/5 320/1/5 319/1/5
f 324/3/5 321/3/5 320/3/5
f 324/1/5 320/1/5 323/1/5
f 325/1/5 322/1/5 321/1/5
f 325/3/5 321/3/5 324/3/5
f 326/1/5 322/1/5 325/1/5
f 327/3/5 324/3/5 323/3/5
f 327/3/5 325/3/5 324/3/5
f 327/3/5 326/3/5 325/3/5
f 328/3/5 326/3/5 327/3/5
f 329/3/5 326/3/5 328/3/5
f 330/3/5 326/3/5 329/3/5
f 331/3/5 329/3/5 328/3/5
f 332/3/5 329/3/5 331/3/5
f 335/3/5 334/3/5 333/3/5
f 336/3/5 334/3/5 335/3/5
f 337/3/5 335/3/5 333/3/5
f 338/6/5 336/6/5 335/6/5
f 338/3/5 335/3/5 337/3/5
f 339/3/5 334/3/5 336/3/5
f 339/6/5 336/6/5 338/6/5
f 340/3/5 334/3/5 339/3/5
f 343/1/5 342/1/5 341/1/5
f 344/1/5 342/1/5 343/1/5
f 349/1/5 346/1/5 345/1/5
f 350/1/5 346/1/5 349/1/5
f 351/1/5 348/1/5 347/1/5
f 352/1/5 348/1/5 351/1/5
f 353/3/5 350/3/5 349/3/5
f 354/3/5 350/3/5 353/3/5
f 355/3/5 352/3/5 351/3/5
f 356/3/5 352/3/5 355/3/5
f 361/1/5 358/1/5 357/1/5
f 362/1/5 358/1/5 361/1/5
f 363/1/5 360/1/5 359/1/5
f 364/1/5 360/1/5 363/1/5
f 369/1/5 366/1/5 365/1/5
f 370/1/5 366/1/5 369/1/5
f 371/1/5 368/1/5 367/1/5
f 372/1/5 368/1/5 371/1/5
f 373/1/6 374/1/6 377/1/6
f 377/1/6 374/1/6 378/1/6
f 375/1/6 376/1/6 379/1/6
f 379/1/6 376/1/6 380/1/6
f 377/3/6 378/3/6 381/3/6
f 381/3/6 378/3/6 382/3/6
f 379/3/6 380/3/6 383/3/6
f 383/3/6 380/3/6 384/3/6
f 382/3/6 383/3/6 385/3/6
f 385/3/6 383/3/6 386/3/6
f 382/3/6 385/3/6 387/3/6
f 385/1/6 386/1/6 388/1/6
f 387/3/6 385/3/6 388/3/6
f 386/3/6 383/3/6 389/3/6
f 388/1/6 386/1/6 389/1/6
f 389/3/6 383/3/6 390/3/6
f 391/1/6 392/1/6 393/1/6
f 393/1/6 392/1/6 394/1/6
f 395/1/6 396/1/6 399/1/6
f 399/1/6 396/1/6 400/1/6
f 397/1/6 398/1/6 401/1/6
f 401/1/6 398/1/6 402/1/6
f 403/3/6 404/3/6 405/3/6
f 405/3/6 404/3/6 406/3/6
f 405/1/6 406/1/6 407/1/6
f 407/1/6 406/1/6 408/1/6
f 407/3/6 408/3/6 409/3/6
f 409/3/6 408/3/6 410/3/6
f 410/3/6 408/3/6 411/3/6
f 411/3/6 408/3/6 412/3/6
f 410/3/6 411/3/6 413/3/6
f 413/3/6 411/3/6 414/3/6
f 414/3/6 411/3/6 415/3/6
f 415/3/6 411/3/6 416/3/6
f 414/3/6 415/3/6 417/3/6
f 417/3/6 415/3/6 418/3/6
f 419/1/6 420/1/6 423/1/6
f 423/1/6 420/1/6 424/1/6
f 421/1/6 422/1/6 425/1/6
f 425/1/6 422/1/6 426/1/6
f 427/1/6 428/1/6 431/1/6
f 431/1/6 428/1/6 432/1/6
f 429/1/6 430/1/6 433/1/6
f 433/1/6 430/1/6 434/1/6
